<svg viewBox="0 0 130 40" fill="none" xmlns="http://www.w3.org/2000/svg"><rect x=".5" y=".5" width="129" height="39" rx="3.5" fill="#000" stroke="#A6A6A6"/><path d="M29.797 20.3a4.95 4.95 0 0 1 2.357-4.152 5.067 5.067 0 0 0-3.991-2.157c-1.68-.177-3.308 1.004-4.163 1.004-.872 0-2.19-.987-3.609-.958a5.315 5.315 0 0 0-4.473 2.728c-1.934 3.349-.491 8.27 1.362 10.976.926 1.326 2.01 2.806 3.427 2.753 1.387-.057 1.905-.884 3.58-.884 1.658 0 2.144.884 3.59.851 1.489-.024 2.427-1.331 3.321-2.669a10.963 10.963 0 0 0 1.519-3.093 4.781 4.781 0 0 1-2.92-4.399Zm-2.73-8.09a4.873 4.873 0 0 0 1.114-3.491 4.957 4.957 0 0 0-3.207 1.66 4.638 4.638 0 0 0-1.144 3.36 4.099 4.099 0 0 0 3.237-1.53Zm20.265 14.93h-4.733l-1.137 3.356h-2.005l4.483-12.418h2.083l4.484 12.418h-2.04l-1.135-3.356Zm-4.243-1.55h3.752l-1.85-5.446h-.051l-1.851 5.447Zm17.099.381c0 2.814-1.505 4.622-3.778 4.622a3.07 3.07 0 0 1-2.848-1.584h-.043v4.484H51.66V21.444h1.799v1.506h.034a3.212 3.212 0 0 1 2.883-1.6c2.298 0 3.813 1.816 3.813 4.621Zm-1.91 0c0-1.833-.947-3.038-2.392-3.038-1.42 0-2.375 1.23-2.375 3.038 0 1.825.955 3.046 2.375 3.046 1.445 0 2.392-1.196 2.392-3.046Zm11.875 0c0 2.814-1.506 4.622-3.778 4.622a3.07 3.07 0 0 1-2.849-1.584h-.043v4.484h-1.858V21.444h1.799v1.506h.034a3.212 3.212 0 0 1 2.883-1.6c2.298 0 3.812 1.816 3.812 4.621Zm-1.91 0c0-1.833-.947-3.038-2.392-3.038-1.42 0-2.375 1.23-2.375 3.038 0 1.825.955 3.046 2.375 3.046 1.445 0 2.392-1.196 2.392-3.046Zm8.495 1.065c.138 1.232 1.334 2.04 2.97 2.04 1.566 0 2.692-.808 2.692-1.919 0-.964-.68-1.54-2.289-1.936l-1.609-.388c-2.28-.55-3.339-1.617-3.339-3.348 0-2.142 1.867-3.614 4.519-3.614 2.624 0 4.422 1.472 4.483 3.614H82.29c-.112-1.239-1.137-1.987-2.634-1.987-1.497 0-2.521.757-2.521 1.858 0 .878.654 1.395 2.255 1.79l1.368.336c2.548.603 3.606 1.626 3.606 3.443 0 2.323-1.85 3.778-4.794 3.778-2.754 0-4.613-1.42-4.733-3.667h1.902ZM88.375 19.3v2.143h1.722v1.472h-1.722v4.991c0 .776.345 1.137 1.102 1.137.204-.004.408-.018.61-.043v1.463c-.34.063-.685.092-1.031.086-1.833 0-2.548-.689-2.548-2.444v-5.19H85.19v-1.472h1.317v-2.142h1.867Zm2.719 6.67c0-2.848 1.678-4.638 4.294-4.638 2.625 0 4.295 1.79 4.295 4.639 0 2.856-1.662 4.638-4.295 4.638s-4.294-1.782-4.294-4.638Zm6.695 0c0-1.953-.895-3.107-2.401-3.107-1.506 0-2.4 1.162-2.4 3.108 0 1.962.894 3.106 2.4 3.106 1.505 0 2.401-1.144 2.401-3.106Zm3.426-4.526h1.772v1.541h.043a2.159 2.159 0 0 1 2.178-1.636c.214 0 .428.023.637.07v1.738a2.602 2.602 0 0 0-.835-.113 1.874 1.874 0 0 0-1.937 2.084v5.37h-1.858v-9.054Zm13.198 6.394c-.25 1.643-1.851 2.771-3.898 2.771-2.634 0-4.269-1.764-4.269-4.595 0-2.84 1.644-4.682 4.191-4.682 2.504 0 4.08 1.72 4.08 4.466v.637h-6.395v.112a2.37 2.37 0 0 0 .122.985 2.354 2.354 0 0 0 2.314 1.58 2.047 2.047 0 0 0 2.09-1.274h1.765Zm-6.282-2.702h4.526a2.183 2.183 0 0 0-.608-1.634 2.177 2.177 0 0 0-1.612-.664 2.291 2.291 0 0 0-2.306 2.298ZM42.855 8.733a2.64 2.64 0 0 1 2.807 2.965c0 1.906-1.03 3.002-2.807 3.002h-2.156V8.733h2.156Zm-1.229 5.123h1.125a1.875 1.875 0 0 0 1.968-2.146 1.881 1.881 0 0 0-1.968-2.133h-1.125v4.28Zm5.084-1.41a2.134 2.134 0 1 1 4.246 0 2.132 2.132 0 1 1-4.247 0Zm3.332 0c0-.976-.438-1.547-1.208-1.547-.772 0-1.207.57-1.207 1.547 0 .984.435 1.55 1.207 1.55.77 0 1.208-.57 1.208-1.55Zm6.56 2.252h-.922l-.931-3.316h-.07l-.927 3.316h-.913l-1.241-4.503h.901l.807 3.436h.066l.926-3.436h.852l.926 3.436h.07l.803-3.436h.889l-1.236 4.503Zm2.281-4.501h.855v.715h.067a1.347 1.347 0 0 1 1.343-.802 1.464 1.464 0 0 1 1.559 1.675V14.7h-.889v-2.692c0-.724-.314-1.084-.971-1.084a1.032 1.032 0 0 0-1.075 1.142V14.7h-.89v-4.503Zm5.238-1.759h.889v6.26h-.889v-6.26Zm2.123 4.008a2.134 2.134 0 1 1 4.248 0 2.134 2.134 0 1 1-4.248 0Zm3.333 0c0-.976-.438-1.547-1.208-1.547-.772 0-1.207.57-1.207 1.547 0 .984.435 1.55 1.207 1.55.77 0 1.208-.57 1.208-1.55Zm1.853.98c0-.81.603-1.278 1.674-1.345l1.22-.07v-.388c0-.476-.314-.745-.922-.745-.496 0-.84.182-.938.5h-.86c.09-.773.818-1.269 1.84-1.269 1.128 0 1.765.562 1.765 1.514v3.076h-.856v-.633h-.07a1.516 1.516 0 0 1-1.352.707 1.36 1.36 0 0 1-1.501-1.347Zm2.894-.385v-.377l-1.1.07c-.62.042-.9.253-.9.65 0 .405.35.641.834.641a1.062 1.062 0 0 0 1.166-.984Zm2.051-.596c0-1.423.731-2.324 1.87-2.324a1.485 1.485 0 0 1 1.38.79h.066V8.438h.89v6.26h-.853v-.711h-.07a1.563 1.563 0 0 1-1.414.785c-1.145 0-1.869-.9-1.869-2.327Zm.918 0c0 .955.45 1.53 1.203 1.53.75 0 1.212-.583 1.212-1.526 0-.939-.468-1.53-1.212-1.53-.748 0-1.203.579-1.203 1.526Zm6.967.001a2.134 2.134 0 1 1 4.247 0 2.132 2.132 0 1 1-4.247 0Zm3.333 0c0-.976-.438-1.547-1.208-1.547-.772 0-1.207.57-1.207 1.547 0 .984.435 1.55 1.207 1.55.77 0 1.208-.57 1.208-1.55Zm2.102-2.249h.856v.715h.066a1.347 1.347 0 0 1 1.344-.802 1.464 1.464 0 0 1 1.558 1.675V14.7h-.888v-2.692c0-.724-.315-1.084-.972-1.084a1.032 1.032 0 0 0-1.075 1.142V14.7h-.889v-4.503Zm8.847-1.123v1.142h.976v.748h-.976v2.316c0 .472.194.678.637.678.113 0 .226-.007.339-.02v.74c-.16.028-.322.043-.484.045-.988 0-1.382-.348-1.382-1.216v-2.543h-.715v-.748h.715V9.074h.89Zm2.192-.636h.881v2.481h.071a1.382 1.382 0 0 1 1.373-.807 1.483 1.483 0 0 1 1.55 1.679v2.907h-.889V12.01c0-.719-.335-1.083-.963-1.083a1.05 1.05 0 0 0-1.075.69 1.047 1.047 0 0 0-.059.451v2.63h-.889v-6.26Zm9.055 5.045a1.832 1.832 0 0 1-1.951 1.303 2.044 2.044 0 0 1-2.081-2.324 2.077 2.077 0 0 1 2.077-2.352c1.253 0 2.008.856 2.008 2.27v.31h-3.179v.05a1.191 1.191 0 0 0 1.199 1.29 1.08 1.08 0 0 0 1.071-.547h.856Zm-3.126-1.45h2.274a1.089 1.089 0 0 0-.666-1.084 1.088 1.088 0 0 0-.442-.083 1.154 1.154 0 0 0-1.082.718 1.167 1.167 0 0 0-.084.448Z" fill="#fff"/></svg>
