<svg xmlns="http://www.w3.org/2000/svg" viewBox="0 0 1619.3 173.1" style="enable-background:new 0 0 1619.3 173.1" xml:space="preserve"><path d="m194.8 2.5 35.1 168h-50.7l-7.5-36h-61.2l-21.6 36h-56l23.3-36H0l165.6-30-5.2-24.2-4.4-21.7-9.2 15.4 10.6 3.9H92.8l48.7-75.2h53.3v-.2zm317 0H389.2c.6.7 1 1.3 1.1 1.8.7 1.7.7 2.9.9 4.2.4 2.4.9 2.8.6 4.7-.6 3.6-1.2 3.3-2.3 5.4-1.1 2.2-1.8 4.7-2 5.4 0 .1 0 .2.2.2.4 0 1.2.1 1.2 1.3 0 1.6-1.8 4.8-2.4 5.7-.5.9-1.7 2.8-2.7 3.4-1.8 1-2.3.4-2.5.9s-2 3.8-2.3 4.7c-.3 1.1-.5 2.5-.6 3.5 0 .2.1.3.2.4 3.5 1.4 12.7 4.6 14.9 8.4l-31 10c4.3-.5 9.1-1.1 13.3-1.6 5.8-.7 15.1-1.7 18.1-1.7 3 0 6.6.8 7.7.9 3.6.5 6.9.6 10.8 1.4 3.9.8 5 2.2 5.8 2.7.2.1 1 .8 1 .8 4.8-.3 12.2-.8 13.7-.9.8-.1 2.4-.2 2.8-.2 14.9-1.9 23.1-9 30.2-13.4 7.9-4.8 19.7-8.7 28.2-8.9 11-.3 18.8 1.6 24.1 6.3 5.2 4.8 7.3 11.1 5.2 20.6-2 9.2-5 13.4-11.7 17.6-6.8 4.2-14.2 5.6-23.1 4.8-14.7-1.3-27.9-10.5-33-13.5-4.5-2.6-10.6-5.3-17.5-5.9-.7-.1-2.7-.1-4 0-.5 0-6.1.4-9.6.7.4 1.3.5 2.4.5 2.6-.1 1.8-1.1 2.7-2.2 2.5-1-.1-3.5-2-4.3-3.6-.1-.2-.3-.2-.3 0v.8c0 .5-.4 2-1.4 2.3-.9.2-2.3 0-3.2-.8-.3-.2-.7-.1-.8.2-.4 1.1-.6 1.7-2.7 1.3-1.4-.2-1.1.4-2 .6-2.2.4-3.3-.8-5-1.6s-1.2-2.5-2.9-2.8c-.3-.1-.9-.2-1.2-.2.9 3 2 6.7 2.8 12.6 0 .2-.1.3-.3.3l-1.8.2c-.2 0-.3.2-.2.3.5 2.3 1.6 6.6 1.8 9.7.4 5.6.4 7.3 0 10.1 0 .2.1.4.3.3.5-.1 1.5-.4 2-.8 0-1.2.5-3.1.6-3.3.2-.2.4-.5.6-.7.1-.2.3-.3.3-.6l.5-1.6c.1-.2.2-.5.3-.7l2.4-4.4s.6-1.2 1.5-.9c0 0 1.6.9 1.6 2.6 0 1.7-1.2 3.7-1.2 3.7l1 1.7s1.9.6 3.7-.7c0 0 .5-.3 1.5-1.2-.5-1.2.6-2.8 3.6-2.2 1 .4 3.9 2.7.3 5.1-.1.1-.1.3.1.3 3.9-.2 3.4 4.5.8 5.9-.2.1-.3.4-.1.7.4.6 1 1.6.9 2.5 0 0 0 1.2-3.8 2.6 0 0-1.2.5-.7 1.3.5.2 1 .3 1.6.5 0 0 3.5.8 2.8 2.7 0 0-.6 1.6-3.9.6 0 0-2 .1-3.2-.1-.6.2-3.2 1-6.3 1.6-.7.1-1.3.5-1.8 1.1-2.1 2.4-8.6 5.8-11.5 5.8-3.2 0-3.6-2.4-6-4.9-4.5-4.8-5.3-10.7-6-16.6 0-.4-.6-.4-.7 0-.8 6.9-1.2 13.2-5.1 16.6-2.3 2.1-6 3.7-12 5.1-22.6 5.4-46.8 19.2-44.1 22.4 1.1 1.2 3.6-1.2 8.1-3.3 16.8-7.7 38.6-9.3 45.6-8.7.5 0 .9.4 1 1 .1.8.4 2.4 1.1 5 .6 2.2 1.3 6 3.6 8.2 4.2 3.9 3.6 5.4 2.6 10.6-.6 3.4 4.1 6.3 4.2 6.4H436l7.5-36h49.2c50.3 0 72.7-23 81.2-67 3.8-20.2 3.7-64.8-62.1-64.8zm-216.3 168c.7-.7 1.5-1.6 2.4-2.5 2.1-2.2.5-7.7.9-9.8.5-2.8 5.3-4.2 6.1-6.9 1-3.7-6.3-3.1-2.8-7 2.2-2.4 5.4-1.6 5.1-4-.4-3.9 3.5-6.5 5.1-7.8 7-5.3 22.6-13.6 32.1-16.4 9.9-2.9-3.8-2.6-15.1 1.5-10.3 3.8 13.3-11 32-15.7 13.3-3.3-9.8-4-31 5.4-6.8 3-10.5 4.8-13.2 6.5-.1.1-.2 0-.2-.2 1-2.2 3.3-5.8 2.6-9.6-.4-2.5-.2-5.3.9-7.2.8-1.5.3-5.6 1.2-7.8.1-.2.3-.2.4-.2l11.4 3.6L378 77.2l-42.5 6.3L320.7 71c-2.1-2.2-4.2-10.9-2.1-14.2 3.1-4.6 6.3-8.2 7.6-9.3 2-1.8 8.1-2.5 11.2-4 3.4-1.7 6.1-.5 8.5-.9 2.4-.5 6.5-1.9 7.8-2.4.1 0 .1-.1.1-.2 0-.5-.1-2.2-.2-2.9-.7-3.1-1-6-.8-8.2.2-2.6 2.6-5 2.7-6.7.1-1.8-1.2-3.6-.2-5.3.9-1.6 1.1-2.8 2.2-6.2-.3-2-1.5-2.7-.6-4.8.5-1.1 1.3-2.6 1.7-3.4H203.2l8.9 42.6h61.2l-6.7 32.7h46.1l-94.1 17 44.5-.1-15.6 75.7 48 .1zm163.8-97.3c1 .5 2.3-.3 2.3-1.6 0-4.2.8-6.2 1.7-9.6.4-1.4-.8-2.5-1.9-1.8-6.9 3.7-11.9 5.2-14.8 5.9-.3.1-.9.5-.9 1.1 0 .6.3.9.7 1 2.8.7 7.3 2.1 12.9 5zm95.8 90.3h-2.8l.3-1.6h7.5l-.3 1.6H557l-1.4 7h-2l1.5-7zm16-1.7-1.7 8.7h-1.9l1-5.1-3.3 4.2h-.9l-1.8-4.3-1 5.2h-1.9l1.7-8.7h1.6l2.2 5.4 4.2-5.4h1.8zm63.7-48.7h27.6c0 21.4 10.2 36.3 42.4 36.3 34.2 0 42.9-12.8 42.9-26.6 0-9.2-3.8-14.6-11.8-17.4-8.4-3.3-26.6-5.6-41.1-7.7-16.9-2.3-34.7-6.1-43.9-12-10.2-6.4-16.6-17.9-16.6-33.7 0-30.6 26.3-52.1 70.2-52.1 49.8 0 67.9 22 67.9 60.3h-27.6c0-24.8-13.5-36.5-39.8-36.5s-40.3 10.5-40.3 25.8c0 9.5 3.3 15.1 10 18.1 7.4 3.6 26.3 6.6 40.9 8.7 17.6 2.8 34 5.6 44.4 11.2 11.5 5.9 18.1 17.6 18.1 33.2 0 27.1-15.8 52.3-73 52.3s-70.3-29.2-70.3-59.9zm162-26.3c0-53.6 35.8-86.8 86.3-86.8 44.2 0 75.6 26.3 75.6 65.1 0 1.8-.2 5.1-.5 8.2h-27.1c.3-2.3.3-4.3.3-5.6 0-25.8-20.2-42.1-47.2-42.1-32.7 0-56.2 23.8-56.2 61.3s24.5 60.8 56.2 60.8c28.1 0 47.8-16.1 47.8-40.3v-4.1h27.3v5.9c0 38-31.7 64.1-76.1 64.1-50.2-.2-86.4-33.1-86.4-86.5zm181.5-1c0-53.4 38.3-85.8 87.1-85.8s87.3 32.4 87.3 85.8-38.3 87.3-87.3 87.3-87.1-32.9-87.1-87.3zm143.3 0c0-37.5-25-60.3-56.2-60.3s-55.9 22.7-55.9 60.3 25 61.8 55.9 61.8 56.2-23.2 56.2-61.8zM1177 2.5h73.8c43.2 0 65.4 18.6 65.4 48.8 0 21.7-9.4 36.5-29.1 40.1v.5c20.4 3.1 28.1 17.4 28.1 37.5v41.1h-30.9V130c0-16.9-6.9-26.1-29.4-26.1h-47.2v66.7H1177V2.5zm74.3 81.3c24.8 0 35.5-10.7 35.5-28.6 0-16.9-11.8-27.1-36.3-27.1h-42.9v55.7h43.7zm91.5-81.3h114.9V28h-84.3v48h66.9v20h-66.9v49h86.6v25.5h-117.2V2.5zm133.3 110.6h27.6c0 21.4 10.2 36.3 42.4 36.3 34.2 0 42.9-12.8 42.9-26.6 0-9.2-3.8-14.6-11.8-17.4-8.4-3.3-26.6-5.6-41.1-7.7-16.9-2.3-34.7-6.1-43.9-12-10.2-6.4-16.6-17.9-16.6-33.7 0-30.6 26.3-52.1 70.2-52.1 49.8 0 67.9 22 67.9 60.3h-27.6c0-24.8-13.5-36.5-39.8-36.5S1506 34.2 1506 49.5c0 9.5 3.3 15.1 10 18.1 7.4 3.6 26.3 6.6 40.9 8.7 17.6 2.8 34 5.6 44.4 11.2 11.5 5.9 18.1 17.6 18.1 33.2 0 27.1-15.8 52.3-73 52.3s-70.3-29.2-70.3-59.9z" style="fill:#051224"/></svg>
