<?xml version="1.0" encoding="UTF-8"?><svg id="Layer_1" xmlns="http://www.w3.org/2000/svg" xmlns:xlink="http://www.w3.org/1999/xlink" viewBox="0 0 678.95 398.44"><defs><style>.cls-1{clip-path:url(#clippath-2);}.cls-2{fill:#171c8f;}.cls-3{fill:#d22630;}.cls-4{fill:#051224;}</style><clipPath id="clippath-2"><path class="cls-4" d="M300.93,328.49l-5.25,24.79h39.5l-2.69,12.8h-39.39l-6.59,31.19h-15.15l17.09-81.47h59.55l-2.69,12.69h-44.4ZM358.03,315.8h15.15l-17.09,81.47h-15.15l17.09-81.47ZM458.24,315.8l-17.09,81.47h-12.47l-32.9-57.03-11.96,57.03h-15.03l17.09-81.47h12.47l33.02,57.03,11.85-57.03h15.03ZM516.14,378.42h-41.02l-11.95,18.85h-16.2l53.8-81.47h15.03l19.5,81.47h-15.03l-4.13-18.85ZM513.46,366.55l-7.93-35.84-22.83,35.84h30.76ZM558.22,315.8h15.15l-14.4,68.66h42.65l-2.68,12.8h-57.8l17.09-81.47ZM616.66,395.76c-5.73-1.78-10.22-4.07-13.45-6.87l6.52-11.87c3.39,2.72,7.43,4.87,12.12,6.46,4.68,1.59,9.47,2.39,14.37,2.39,5.98,0,10.75-1.03,14.3-3.08,3.55-2.05,5.35-4.87,5.38-8.44.02-2.02-.68-3.7-2.11-5.06-1.43-1.36-3.2-2.46-5.33-3.32-2.13-.85-5.09-1.82-8.89-2.91-5.27-1.55-9.52-3.04-12.77-4.48-3.25-1.43-6.03-3.59-8.33-6.46-2.3-2.87-3.43-6.59-3.39-11.17.05-5.28,1.59-9.89,4.62-13.85,3.03-3.96,7.23-7.02,12.61-9.19,5.38-2.17,11.57-3.26,18.56-3.26,5.28,0,10.29.6,15.01,1.8,4.73,1.2,8.79,2.89,12.19,5.06l-6.06,11.99c-3.01-2.02-6.41-3.57-10.21-4.65-3.8-1.09-7.75-1.63-11.87-1.63-6.06,0-10.87,1.11-14.42,3.32-3.56,2.21-5.35,5.14-5.39,8.79-.02,2.1.7,3.84,2.16,5.24,1.46,1.4,3.24,2.5,5.33,3.32,2.09.81,5.15,1.84,9.18,3.08,5.11,1.47,9.29,2.91,12.54,4.31,3.25,1.4,6.01,3.45,8.27,6.17,2.26,2.72,3.38,6.25,3.34,10.59-.05,5.35-1.59,10.01-4.62,13.97-3.03,3.96-7.29,7.02-12.79,9.19-5.5,2.17-11.78,3.26-18.85,3.26-6.29,0-12.3-.89-18.04-2.68Z"/></clipPath></defs><path class="cls-4" d="M229.96,100.17l41.41,198.29h-59.85l-8.82-42.5h-72.21l-25.45,42.5H38.86l27.48-42.5-66.34-.05,195.49-35.42-6.14-28.58h0l-5.17-25.61-10.86,18.14,12.54,4.59-76.21-.05,57.44-88.82h62.88ZM604.2,100.17h-144.68c.73.82,1.13,1.59,1.33,2.09.77,1.98.84,3.47,1.1,4.96.49,2.9,1.07,3.32.72,5.54-.68,4.29-1.45,3.88-2.77,6.4-1.34,2.57-2.18,5.5-2.41,6.35-.03.12.06.22.19.21.47-.03,1.44.09,1.48,1.54.06,1.92-2.17,5.68-2.79,6.75-.63,1.07-2.04,3.28-3.23,3.98-2.06,1.2-2.7.51-3,1.11s-2.36,4.49-2.68,5.55c-.39,1.32-.58,2.95-.67,4.16-.01.2.09.37.28.44,4.14,1.62,14.96,5.47,17.56,9.88l-36.56,11.87c5.11-.61,10.73-1.3,15.7-1.87,6.81-.78,17.83-2.01,21.37-1.97,3.5.03,7.84.94,9.12,1.11,4.28.57,8.09.72,12.73,1.66,4.64.93,5.9,2.57,6.79,3.16.2.13,1.12.89,1.12.89,5.65-.4,14.36-.95,16.21-1.1.94-.08,2.87-.18,3.25-.23,17.59-2.24,27.23-10.66,35.63-15.78,9.29-5.66,23.25-10.29,33.25-10.55,12.92-.34,22.22,1.85,28.41,7.48,6.19,5.63,8.61,13.08,6.12,24.32-2.4,10.83-5.86,15.83-13.85,20.8-7.99,4.97-16.82,6.56-27.24,5.6-17.36-1.59-32.88-12.44-39.01-15.97-5.27-3.03-12.52-6.25-20.67-6.98-.78-.07-3.13-.14-4.78,0-.56.05-7.19.5-11.37.81.48,1.58.57,2.82.55,3.11-.12,2.12-1.3,3.14-2.6,2.98-1.18-.15-4.17-2.37-5.03-4.22-.08-.18-.35-.26-.35.03,0,.34.04.67,0,.98-.06.58-.41,2.36-1.67,2.72-1.05.3-2.67.03-3.84-.91-.34-.28-.85-.14-.99.27-.45,1.29-.72,2.06-3.16,1.58-1.67-.18-1.32.48-2.39.68-2.6.49-3.85-.88-5.92-1.84-2.06-.95-1.38-2.91-3.42-3.26-.4-.07-1.09-.2-1.47-.24,1.02,3.56,2.32,7.89,3.26,14.88.03.19-.11.38-.3.4l-2.1.25c-.2.02-.34.2-.3.39.53,2.71,1.84,7.79,2.12,11.44.51,6.65.43,8.6-.01,11.89-.03.23.17.43.39.38.66-.14,1.82-.47,2.42-.94.03-1.47.63-3.68.75-3.86.22-.3.44-.58.68-.84.17-.19.31-.41.38-.66l.54-1.92c.08-.29.2-.57.34-.83l2.87-5.16s.67-1.41,1.83-1.1c0,0,1.9,1.03,1.85,3.01-.05,1.98-1.36,4.38-1.36,4.38l1.22,1.95s2.2.72,4.34-.85c0,0,.6-.37,1.83-1.36-.53-1.44.74-3.27,4.22-2.61,1.2.51,4.61,3.22.35,6.02-.16.11-.08.36.12.34,4.64-.28,4.06,5.33.91,7.02-.28.15-.34.52-.16.77.48.67,1.18,1.89,1.06,3,0,0,.02,1.48-4.5,3.02,0,0-1.38.56-.83,1.58.55.2,1.15.41,1.86.63,0,0,4.09.93,3.29,3.19,0,0-.66,1.91-4.54.65,0,0-2.35.14-3.82-.12-.69.23-3.79,1.22-7.39,1.84-.83.14-1.51.61-2.09,1.25,0,.01-.02.02-.03.03-2.51,2.88-10.17,6.84-13.59,6.88-3.81.04-4.28-2.9-7.06-5.8-5.37-5.62-6.29-12.66-7.11-19.63-.05-.46-.73-.46-.78,0-.96,8.18-1.44,15.54-5.97,19.58-2.77,2.47-7.09,4.4-14.12,6.06-26.64,6.32-55.3,22.67-52.05,26.39,1.28,1.47,4.29-1.46,9.55-3.88,19.86-9.13,45.57-10.96,53.84-10.3.6.05,1.06.53,1.13,1.13.1.99.41,2.8,1.27,5.86.72,2.56,1.55,7.14,4.27,9.68,4.95,4.63,4.27,6.34,3.1,12.55-.76,4.06,4.8,7.44,4.94,7.59h57.28l8.81-42.5h58.14c59.43,0,85.84-27.13,95.92-79.09,4.69-24.16,4.54-76.71-73.11-76.71ZM348.81,298.46c.8-.88,1.72-1.86,2.82-2.99,2.5-2.56.54-9.06,1.03-11.56.63-3.27,6.29-5,7.17-8.21,1.2-4.36-7.42-3.61-3.3-8.22,2.57-2.88,6.33-1.88,6.07-4.71-.42-4.6,4.08-7.72,5.97-9.16,8.22-6.24,26.68-16.09,37.85-19.35,11.72-3.41-4.43-3.1-17.79,1.8-12.14,4.45,15.7-12.99,37.74-18.52,15.7-3.94-11.53-4.7-36.62,6.33-7.97,3.5-12.41,5.65-15.6,7.72-.13.09-.29-.05-.22-.19,1.24-2.54,3.85-6.89,3.08-11.38-.5-2.94-.18-6.21,1.02-8.46.96-1.8.38-6.65,1.43-9.16.08-.19.3-.28.5-.22l13.48,4.22,52.68-17.94-50.16,7.44-17.4-14.87c-2.46-2.61-5.02-12.87-2.44-16.71,3.67-5.46,7.42-9.62,9.03-11.04,2.37-2.08,9.62-2.97,13.18-4.77,3.98-2.01,7.16-.65,10.02-1.1,2.78-.56,7.68-2.29,9.15-2.84.08-.03.12-.1.12-.18,0-.54-.1-2.57-.29-3.47-.79-3.67-1.22-7.13-.98-9.63.3-3.12,3.02-5.86,3.15-7.94.13-2.08-1.37-4.21-.22-6.25,1.07-1.89,1.35-3.35,2.57-7.33-.31-2.36-1.81-3.2-.72-5.62.57-1.27,1.55-3.08,1.97-3.98h-183.26l10.47,50.28h72.22l-7.95,38.59,54.42.02-111.11,20.13,52.56-.1-18.41,89.38h56.77ZM542.26,183.62c1.2.62,2.67-.34,2.69-1.88.05-5,.95-7.29,2.03-11.29.43-1.61-.92-2.9-2.29-2.16-8.09,4.37-13.99,6.2-17.5,6.97-.39.09-1.03.55-1.03,1.27,0,.71.4,1.12.78,1.21,3.41.83,8.66,2.45,15.33,5.88Z"/><path class="cls-4" d="M655.34,290.17h-3.27l.39-1.93h8.91l-.39,1.93h-3.26l-1.66,8.3h-2.37l1.65-8.3ZM674.16,288.24l-2.03,10.22h-2.22l1.2-6.08-3.9,4.99h-1.05l-2.1-5.05-1.23,6.13h-2.22l2.05-10.22h1.93l2.56,6.37,5-6.37h2.03Z"/><path class="cls-4" d="M300.93,328.49l-5.25,24.79h39.5l-2.69,12.8h-39.39l-6.59,31.19h-15.15l17.09-81.47h59.55l-2.69,12.69h-44.4ZM358.03,315.8h15.15l-17.09,81.47h-15.15l17.09-81.47ZM458.24,315.8l-17.09,81.47h-12.47l-32.9-57.03-11.96,57.03h-15.03l17.09-81.47h12.47l33.02,57.03,11.85-57.03h15.03ZM516.14,378.42h-41.02l-11.95,18.85h-16.2l53.8-81.47h15.03l19.5,81.47h-15.03l-4.13-18.85ZM513.46,366.55l-7.93-35.84-22.83,35.84h30.76ZM558.22,315.8h15.15l-14.4,68.66h42.65l-2.68,12.8h-57.8l17.09-81.47ZM616.66,395.76c-5.73-1.78-10.22-4.07-13.45-6.87l6.52-11.87c3.39,2.72,7.43,4.87,12.12,6.46,4.68,1.59,9.47,2.39,14.37,2.39,5.98,0,10.75-1.03,14.3-3.08,3.55-2.05,5.35-4.87,5.38-8.44.02-2.02-.68-3.7-2.11-5.06-1.43-1.36-3.2-2.46-5.33-3.32-2.13-.85-5.09-1.82-8.89-2.91-5.27-1.55-9.52-3.04-12.77-4.48-3.25-1.43-6.03-3.59-8.33-6.46-2.3-2.87-3.43-6.59-3.39-11.17.05-5.28,1.59-9.89,4.62-13.85,3.03-3.96,7.23-7.02,12.61-9.19,5.38-2.17,11.57-3.26,18.56-3.26,5.28,0,10.29.6,15.01,1.8,4.73,1.2,8.79,2.89,12.19,5.06l-6.06,11.99c-3.01-2.02-6.41-3.57-10.21-4.65-3.8-1.09-7.75-1.63-11.87-1.63-6.06,0-10.87,1.11-14.42,3.32-3.56,2.21-5.35,5.14-5.39,8.79-.02,2.1.7,3.84,2.16,5.24,1.46,1.4,3.24,2.5,5.33,3.32,2.09.81,5.15,1.84,9.18,3.08,5.11,1.47,9.29,2.91,12.54,4.31,3.25,1.4,6.01,3.45,8.27,6.17,2.26,2.72,3.38,6.25,3.34,10.59-.05,5.35-1.59,10.01-4.62,13.97-3.03,3.96-7.29,7.02-12.79,9.19-5.5,2.17-11.78,3.26-18.85,3.26-6.29,0-12.3-.89-18.04-2.68Z"/><g class="cls-1"><rect class="cls-4" x="241.74" y="296.92" width="459.98" height="137.92"/></g><path class="cls-2" d="M396.78,46.74h15.51l3.24-11.99h-15.51l4.29-16h-28.24l-4.32,16h-13.11l-3.24,11.99h13.11l-4.33,16c-3.46,12.91,1.48,20.34,22.41,20.34,5.3,0,10.72,0,16.1-.21l3.12-11.59-5.14.07c-5.52,0-6.63-.54-7.84-1.83-1.89-2.05-.48-6.28-.04-7.91l4-14.88ZM180.92,0l-.12.46c6.52,3.9,8.82,10.76,6.74,18.58l-17.17,63.8h30.73l16.24-60.45,13.89,35.49c6.95,15.61,14.04,24.96,39.28,24.96l15.66-.02L308.44,0h-30.72l-16.3,61.04-12.68-32.98c-5.3-15.88-14.17-28.07-40.41-28.07h-27.41ZM344.75,34.75h-29.59l-7.6,27.99c-3.45,12.91,1.46,20.34,22.39,20.34,5.31,0,10.72,0,16.11-.21l3.13-11.59-5.04.08c-4.34,0-5.43-.54-6.62-1.83-1.9-2.05-.48-6.28-.05-7.91l7.27-26.87ZM459.08,46.74h15.51l3.22-11.99h-15.51l4.3-16h-28.23l-4.32,16h-13.12l-3.24,11.99h13.12l-4.32,16c-3.46,12.91,1.45,20.34,22.39,20.34,5.31,0,10.73,0,16.1-.21l3.13-11.59-5.14.07c-5.53,0-6.65-.54-7.84-1.83-1.89-2.05-.48-6.28-.05-7.91l4.01-14.88ZM527.81,33.13c27.38,0,41.59,9.18,37.87,25.14-3.81,16.34-22.3,25.52-50.54,25.52s-42.01-9.19-38.23-25.42c1.73-7.46,7.7-13.96,16.01-18.27,8.95-4.58,20.56-6.98,34.89-6.98M535.38,58.38c2.29-8.51.7-15.39-10.2-15.39s-16.02,6.79-18.3,15.29c-1,3.73-1.16,7.56.06,10.51,1.39,3.36,4.19,5.16,10.07,5.16,10.61,0,16.1-7.07,18.36-15.57"/><polygon class="cls-3" points="347.1 26.03 317.51 26.03 321.39 11.73 350.96 11.75 347.1 26.03"/></svg>