<svg id="Layer_1" data-name="Layer 1" xmlns="http://www.w3.org/2000/svg" viewBox="0 0 231 250"><defs><style>.cls-1{fill:#13171b}</style></defs><path class="cls-1" d="M84 188.84c38.05 0 68.9-29.78 68.9-66.49s-30.84-66.5-68.9-66.5-68.88 29.73-68.88 66.5S46 188.84 84 188.84m.34-134.52L17.9 2.55 229.81 122.1l-212 125.35 70.77-57.53a115.62 115.62 0 0 1-13 .72c-41.09 0-74.42-30.52-74.42-68.29S34.52 54 75.61 54c2.54 0 6.29.13 8.74.35"/><path class="cls-1" d="M90.18 138.9c11.64 0 19.59-7.43 22.15-15.06 2-5.93 1.5-16.22-10.51-16.92h-8.63l-14.94 32Zm-60.46 8.27 4.06-8.35H45.9l15.23-32.12h-14l3.81-8.1h63c22.78 0 30.64 13.29 28.78 25.51-1.37 9.22-7 23.06-36.82 23.06Z"/></svg>
