<svg version="1.1" id="Capa_1" xmlns="http://www.w3.org/2000/svg" x="0" y="0" viewBox="0 0 125.2 94.6" style="enable-background:new 0 0 125.2 94.6" xml:space="preserve"><style>.st1{fill-rule:evenodd;clip-rule:evenodd;fill:#fff}</style><path style="fill:#d71920" d="M12 9.8h101.2v75.8H12z"/><path class="st1" d="M67.4 24.8c-.6.8-1 1.8-1 2.9v9.1c-.1.7-.3 1.4-.7 1.8-.2.2-1.6 1.5-1.8 1.6h.8c.2-.2 3-2.6 3.2-3 .8-.9 1.2-2 1.2-3.1v-8.7c0-.9.3-1.8 1-2.4.3-.4 1.4-1.2 1.6-1.4H71c-.2.2-3.2 2.9-3.6 3.2m-6.7 33 3.3 2.9h2.3c2.1 0 4.1-.9 5.7-2.3 1.3-1.3 1.9-3 1.9-4.9v-4.7c0-1-.5-2.1-1.3-2.8l-1.1-1v3.6l1.3 1.3c1 1 1 3-2.2 5.9-1.1 1.2-2.7 1.9-4.3 2h-5.6z"/><path class="st1" d="M70 38.4c-.5.6-.7 1.4-.7 2.2v1.8h1.9c.7-.1 1.4-.4 1.9-1v-1.8c.2.4.6.7 1 1 .2-.2 1.9-2.2 3.2-2.2 2.3 0 1.8 2.9.8 3.8-.3.3-1.7 1.5-2.1 1.9-1.1 1-3 .6-3-2.2 0 0-2 1.9-2.3 2.2l-1.4 1.4v4.7c.2 1.4-.3 2.7-1.3 3.7-.2.2-2.8 2.6-3.2 2.8H64s1.5-1.4 1.8-1.7c.5-.6.7-1.4.6-2.2 0-.3-.1-7.4-.1-7.4H54.8c-4 0-4.9-4.5-4.9-5.7v-4.5c0-1-.5-1.8-1.2-2.3h1.1c.2.1.8.3.8 3.1 0 0-.1 3.2-.1 3.4 0 1.5 1.1 2.9 2.7 3h13.3c.1-.9.5-1.7 1-2.4.3-.4 3.2-3 3.5-3.2h.8c-.1.2-1.5 1.4-1.8 1.6m4.3 2.7c.3.5.7.9 1.1 1.3 1.5 1.1 2.1-.1 1.1-1.4-.3-.4-1.8-.3-2.2.1"/><path class="st1" d="M60.2 49.6c0 .6-2 2.3-2.2 2.4-.2-.6-.6-1.4-2.2-2.9l2.3-2.2c1.4 1.4 2.1 1.7 2.1 2.7m3.9-25.4c.5.4 1.4 1.6.8 2.2l-1.3 1.3c0-.3-.8-1-.8-1v2.4c0 1-.4 1.2-.4 1.2 1.1 1.1 1.7 2.5 1.8 4v2.3c0 .4-.2.9-.5 1.2-.2.2-1.9 1.8-2.1 2.1-.4.3-.9.5-1.4.5H54c-1 0-1.9-.7-1.9-1.5v-2.2c.3.5.8.8 1.5.8.6 0 1.1-.2 1.5-.6l4.7-4.9c-1.1-1-2.3-2-3.5-2.9-.6-.3-1.3-.1-1.6.5 0 .1-.1.2-.1.2-.2 1.5-.2 3.1 0 4.7l-1.7-1.8c-.7-.9-.6-2.2.2-3 .7-.9 1.8-1.4 3-1.5h2.5c1.6 0 3.5 1.6 3.5 1.6.2-.2.2-.3.2-.6v-3.1c-1.2-1.2-1.5-2.5-.8-3.1l1.5-1.5c-.2 1 .3 2 1.1 2.7m-7.8 12.4c-.3.5-.8.8-1.3 1.1h7c1.9 0 1.5-1.2 1.1-1.8-.9-1.2-1.9-2.4-2.9-3.4.1 0-3.8 3.9-3.9 4.1"/><path class="st1" d="M48.3 42.8h-1.1c.8.6 1.3 1.4 1.2 2.4v5.5c0 3.6 3 6.9 6.6 6.9h3.1c1.4.1 2.7-.4 3.6-1.4.4-.3 1-1 1.1-1.1.9-.8 1.4-1.9 1.3-3.1v-1.8c0-1-.5-2-1.4-2.6-.2-.2-1.1-1-1.1-1v3.7s.7.8 1.1 1c1.6 1.2.3 3.4-1.1 3.4H55c-3.2-.1-5.7-2.6-5.7-5.8v-3c-.1-3.1-1-3.1-1-3.1"/><path class="st1" d="M55.6 49.6c0 .6-2 2.3-2.2 2.4-.2-.6-.6-1.4-2.2-3l2.3-2.2c1.5 1.5 2.1 1.8 2.1 2.8M32.3 74.1h-3.6c-1.1 0-1.1-1-1.1-1.7v-5.1h1.7c1.1-.2 2.3.1 3.4.6-.6-1.3-1.9-2.1-3.4-2.1h-1.6v-1.6c0-.6-.1-1.3-.3-1.8h2.3c2 0 3.6 0 5.3 1 0 0-.3-2.6-4.3-2.6H23c.9.9 1.4 2.2 1.3 3.4l.1 9.2c0 2.3 1 2.4 1 2.4H33c1.1.2 2.2-.7 2.3-1.8v-1c-.2 0-.7 1.1-3 1.1m20.2-.8v-6.5c0-2.5-2.1-3.2-3.6-3.2-1.4.1-2.6 1-2.9 2.2-.5-1.4-1.9-2.3-3.3-2.3-1.5 0-2.7 1-3.1 2.3 0 0-.1-2.2-2-2.2h-1.9s1.1.5 1.1 2.4v7.2c0 2.4 1 2.4 1 2.4H41c-.7-.6-1.2-1.4-1.2-2.4v-6.4c.2-.8 1.1-1.3 1.9-1.3.9.1 1.6.8 1.6 1.7v5.9c0 2.4 1 2.4 1 2.4h3.2c-.7-.6-1.2-1.4-1.2-2.4v-6.4c.3-1 1.4-1.4 2.3-1.1.7.2 1.2.9 1.2 1.6v5.9c0 2.4 1 2.4 1 2.4H54c-.7-.6-1.2-1.4-1.2-2.4m5.3.2c0 1 .5 1.8 1.2 2.4h-3.2s-1 0-1-2.4v-7.2c0-1.9-1.1-2.4-1.1-2.4h2c.6 0 2.1 0 2.1 2.6v7zm9.8-8.7c-.3-.6-1-1-1.6-.9-2 0-2.5 2.3-2.5 2.3-.2-1.8-.6-2.4-2.1-2.4h-1.9s1.1.5 1.1 2.4v7.2c0 2.4 1 2.4 1 2.4h3.2c-.7-.6-1.2-1.4-1.2-2.4v-5.9c.1-.5.4-1 .8-1.2 1.1-.7 2.5-.5 3.3.5l-.1-2zm14.9.5c.6 0 1.3.2 1.9.5v-1.8H82V61c-.6.9-1.3 1.7-2.1 2.4-.9.6-1.9 1.2-2.8 1.7h2v8.3c0 2.3 1 2.3 1 2.3h3.2c-.7-.6-1.2-1.4-1.2-2.3V65l.7.1m9.7 3.6c-1.8 1.8-3.2 1.5-4.3 3 .1 1 .7 2 1.6 2.5 1.4.6 3.1.2 3.7-1.2v1.9s-.8 1-3.4 1c-3.2 0-5.3-2.4-5.3-5.8s1.8-6.3 5-6.3c3.4-.1 5.1 2.4 2.7 4.9m-1.9-.8c.6-1 1-3.4-.9-3.3-2.1.2-1.7 5.7-1.7 5.7.7-.8 1.8-.9 2.6-2.4m-34-5.1c.8 0 1.5-.7 1.5-1.4 0-.8-.7-1.4-1.5-1.4s-1.5.6-1.5 1.4c.1.7.7 1.4 1.5 1.4m14.6 11.5c-.7-.1-1.3-.8-1.3-1.5 0-3 2.5-3.4 3.2-4.2v5.1c-.5.5-1.1.8-1.9.6m1.9-6.8c-.7 1.3-6.5 1.6-5.7 6 .3 1.8 1.5 2.2 3 2.2 1.1.1 2.1-.5 2.7-1.4.2 1.4.9 1.4.9 1.4h3.2c-.8-.6-1.2-1.4-1.2-2.4v-6.7c0-1.6-1.8-2.9-3.7-2.9-1.1 0-2.1.3-3 .9v2.1c.4-1 1.3-1.6 2.3-1.7 1.6 0 1.8.8 1.8 1.2 0 .4 0 .9-.3 1.3m26.5 5c-.1 1.2-1.1 2.1-2.3 1.9h-.1c-1.1-.1-1.9-.7-2.3-1.7v2.2c.9.6 1.9.8 3.1.8 2.2 0 4.4-1.6 4.4-3.9 0-.7-.3-1.5-.7-2.1-.9-1-1.9-1.8-3.2-2.3-.5-.2-.8-.7-.9-1.2 0-.4.2-1.2 1.8-1.2 1 .1 1.9.7 2.3 1.7v-2c-.9-.6-1.9-1-3.1-1-1.9 0-3.6 1.3-3.6 2.9 0 1.3.6 2.5 1.8 3.2.5.4 1.1.7 1.6 1 .7.2 1.1.9 1.2 1.7"/></svg>
