<svg viewBox="0 0 130 40" fill="none" xmlns="http://www.w3.org/2000/svg"><rect x=".5" y=".5" width="129" height="39" rx="3.5" fill="#000" stroke="#A6A6A6"/><path d="M44.389 10.201c0 .8-.2 1.5-.7 2-.6.6-1.3.9-2.2.9-.9 0-1.599-.3-2.199-.9-.6-.6-.9-1.3-.9-2.2 0-.9.3-1.6.9-2.199.6-.6 1.3-.9 2.2-.9.4 0 .8.1 1.2.3.399.2.699.4.899.7l-.5.5c-.4-.5-.9-.7-1.6-.7-.6 0-1.199.2-1.599.7-.5.4-.7 1-.7 1.7 0 .699.2 1.299.7 1.699.5.4 1 .7 1.6.7.7 0 1.2-.2 1.699-.7.3-.3.5-.7.5-1.2h-2.2v-.8h2.9v.4Zm4.598-2.499h-2.7v1.9h2.5v.7h-2.5V12.2h2.7v.8h-3.499V7.001h3.499v.7ZM52.286 13h-.8V7.702h-1.7v-.7h4.2v.7h-1.7V13Zm4.598 0V7.002h.8V13h-.8Zm4.199 0h-.8V7.702h-1.7v-.7h4.1v.7h-1.7V13h.1Zm9.496-.8c-.6.6-1.3.9-2.199.9-.9 0-1.6-.3-2.2-.9-.599-.6-.899-1.3-.899-2.199 0-.9.3-1.6.9-2.199.6-.6 1.3-.9 2.2-.9.899 0 1.599.3 2.198.9.6.6.9 1.3.9 2.2 0 .899-.3 1.599-.9 2.198Zm-3.798-.5c.4.4 1 .7 1.6.7.599 0 1.199-.2 1.599-.7.4-.4.7-.999.7-1.699 0-.7-.2-1.3-.7-1.7-.4-.399-1-.699-1.6-.699-.6 0-1.2.2-1.6.7-.4.4-.7 1-.7 1.7 0 .699.2 1.299.7 1.699Zm5.798 1.3V7.002h.9l2.898 4.699V7.002h.8V13h-.8l-3.099-4.898V13h-.7Z" fill="#fff" stroke="#fff" stroke-width=".2" stroke-miterlimit="10"/><path d="M65.08 21.796c-2.399 0-4.298 1.8-4.298 4.299 0 2.399 1.9 4.298 4.298 4.298 2.4 0 4.299-1.8 4.299-4.299 0-2.599-1.9-4.298-4.299-4.298Zm0 6.798c-1.3 0-2.399-1.1-2.399-2.6 0-1.499 1.1-2.599 2.4-2.599 1.299 0 2.399 1 2.399 2.6 0 1.499-1.1 2.599-2.4 2.599Zm-9.296-6.798c-2.4 0-4.299 1.8-4.299 4.299 0 2.399 1.9 4.298 4.299 4.298 2.399 0 4.298-1.8 4.298-4.299 0-2.599-1.9-4.298-4.298-4.298Zm0 6.798c-1.3 0-2.4-1.1-2.4-2.6 0-1.499 1.1-2.599 2.4-2.599 1.3 0 2.399 1 2.399 2.6 0 1.499-1.1 2.599-2.4 2.599Zm-11.096-5.498v1.799h4.298c-.1 1-.5 1.8-1 2.3-.6.599-1.6 1.299-3.298 1.299-2.7 0-4.699-2.1-4.699-4.799 0-2.699 2.1-4.798 4.699-4.798 1.399 0 2.499.6 3.298 1.3l1.3-1.3c-1.1-1-2.5-1.8-4.498-1.8-3.6 0-6.698 3-6.698 6.598 0 3.6 3.099 6.598 6.697 6.598 2 0 3.4-.6 4.599-1.9 1.2-1.199 1.6-2.898 1.6-4.198 0-.4 0-.8-.1-1.1h-6.199Zm45.384 1.4c-.4-1-1.4-2.7-3.6-2.7-2.198 0-3.998 1.7-3.998 4.299 0 2.399 1.8 4.298 4.199 4.298 1.9 0 3.099-1.2 3.499-1.9l-1.4-.999c-.5.7-1.1 1.2-2.1 1.2-.999 0-1.599-.4-2.098-1.3l5.698-2.4-.2-.499Zm-5.798 1.399c0-1.6 1.3-2.5 2.199-2.5.7 0 1.4.4 1.6.9l-3.8 1.6Zm-4.699 4.098h1.9V17.498h-1.9v12.495Zm-2.999-7.297c-.5-.5-1.3-1-2.299-1-2.1 0-4.098 1.9-4.098 4.298 0 2.4 1.899 4.2 4.098 4.2 1 0 1.8-.5 2.2-1h.1v.6c0 1.599-.9 2.498-2.3 2.498-1.1 0-1.9-.8-2.1-1.5l-1.599.7c.5 1.1 1.7 2.5 3.8 2.5 2.198 0 3.998-1.3 3.998-4.399v-7.597h-1.8v.7Zm-2.199 5.898c-1.3 0-2.399-1.1-2.399-2.6 0-1.499 1.1-2.599 2.4-2.599 1.299 0 2.298 1.1 2.298 2.6 0 1.499-1 2.599-2.299 2.599ZM98.77 17.497h-4.5v12.496h1.9v-4.698h2.599c2.099 0 4.098-1.5 4.098-3.899s-1.999-3.899-4.098-3.899Zm.1 5.998h-2.7v-4.298h2.7c1.399 0 2.199 1.2 2.199 2.1-.1 1.099-.9 2.198-2.2 2.198Zm11.496-1.799c-1.4 0-2.799.6-3.299 1.9l1.699.7c.4-.7 1-.9 1.7-.9.999 0 1.899.6 1.999 1.599v.1c-.3-.2-1.1-.5-1.9-.5-1.799 0-3.598 1-3.598 2.8 0 1.698 1.499 2.798 3.099 2.798 1.299 0 1.899-.6 2.399-1.2h.1v1h1.799v-4.798c-.2-2.2-1.899-3.499-3.998-3.499Zm-.2 6.898c-.6 0-1.5-.3-1.5-1.1 0-1 1.1-1.3 1.999-1.3.8 0 1.2.2 1.7.4-.2 1.2-1.2 2-2.199 2Zm10.496-6.598-2.099 5.398h-.1l-2.2-5.398h-1.999l3.299 7.597-1.899 4.199h1.899l5.098-11.796h-1.999Zm-16.794 7.997h1.899V17.498h-1.899v12.495Z" fill="#fff"/><path d="M7.4 7.504c-.3.3-.4.8-.4 1.4v22.092c0 .6.2 1.1.5 1.4l.1.1 12.396-12.397v-.2L7.4 7.505Z" fill="url(#a)"/><path d="m23.993 24.298-4.098-4.099v-.3l4.098-4.098.1.1 4.898 2.799c1.4.8 1.4 2.099 0 2.899l-4.998 2.699Z" fill="url(#b)"/><path d="M24.093 24.198 19.894 20 7.398 32.496c.5.5 1.2.5 2.1.1l14.595-8.397Z" fill="url(#c)"/><path d="M24.093 15.802 9.498 7.504c-.9-.5-1.6-.4-2.1.1L19.894 20l4.199-4.198Z" fill="url(#d)"/><path opacity=".2" d="M23.993 24.098 9.498 32.295c-.8.5-1.5.4-2 0l-.1.1.1.1c.5.4 1.2.5 2 0l14.495-8.397Z" fill="#000"/><path opacity=".12" d="M7.4 32.296c-.3-.3-.4-.8-.4-1.4v.1c0 .6.2 1.1.5 1.4v-.1h-.1Zm21.592-10.997-4.998 2.8.1.1 4.898-2.8c.7-.4 1-.9 1-1.399 0 .5-.4.9-1 1.3Z" fill="#000"/><path opacity=".25" d="m9.5 7.605 19.492 11.096c.6.4 1 .8 1 1.3 0-.5-.3-1-1-1.4L9.5 7.505c-1.4-.8-2.5-.2-2.5 1.4v.1c0-1.5 1.1-2.2 2.5-1.4Z" fill="#fff"/><defs><linearGradient id="a" x1="18.796" y1="8.713" x2="2.019" y2="25.49" gradientUnits="userSpaceOnUse"><stop stop-color="#00A0FF"/><stop offset=".007" stop-color="#00A1FF"/><stop offset=".26" stop-color="#00BEFF"/><stop offset=".512" stop-color="#00D2FF"/><stop offset=".76" stop-color="#00DFFF"/><stop offset="1" stop-color="#00E3FF"/></linearGradient><linearGradient id="b" x1="30.825" y1="20" x2="6.636" y2="20" gradientUnits="userSpaceOnUse"><stop stop-color="#FFE000"/><stop offset=".409" stop-color="#FFBD00"/><stop offset=".775" stop-color="orange"/><stop offset="1" stop-color="#FF9C00"/></linearGradient><linearGradient id="c" x1="21.82" y1="22.295" x2="-.93" y2="45.045" gradientUnits="userSpaceOnUse"><stop stop-color="#FF3A44"/><stop offset="1" stop-color="#C31162"/></linearGradient><linearGradient id="d" x1="4.297" y1=".183" x2="14.456" y2="10.342" gradientUnits="userSpaceOnUse"><stop stop-color="#32A071"/><stop offset=".069" stop-color="#2DA771"/><stop offset=".476" stop-color="#15CF74"/><stop offset=".801" stop-color="#06E775"/><stop offset="1" stop-color="#00F076"/></linearGradient></defs></svg>
