<svg xmlns="http://www.w3.org/2000/svg" xml:space="preserve" width="5358.68" height="278.52"><defs><clipPath clipPathUnits="userSpaceOnUse" id="a"><path d="M0 208.89h4019.009V0H0Z"/></clipPath></defs><g clip-path="url(#a)" transform="matrix(1.33333 0 0 -1.33333 0 278.52)"><path d="M0 0c.5-29.86-17.17-54.47-39.39-54.86-10.71-.1-20.85 5.21-28.62 15.19-7.87 10.11-12.34 23.69-12.59 38.24-.51 29.85 17.15 54.45 39.37 54.84h.55c10.48 0 20.43-5.38 28.08-15.19C-4.73 28.11-.25 14.53 0-.01Zm206.06 9.79c-2.18 1.08-4.23 2.08-6.14 3.01-17.51 8.56-22.8 11.14-22.6 21.61 0 18.89 18.1 20.36 23.64 20.36 11.96 0 19.77-4.14 31.75-12.85l2.34-1.7v23.49l-.98.35c-9.3 3.28-17.06 4.57-27.52 4.57h-.68c-24.47 0-41.77-9.93-46.23-26.43l-26.19-64.82-1.24-3.71-1.14 3.81-20.68 50.42-14.76 36.24-.71.19c-8.39 2.2-20.23 4.75-28.62 4.67-.69.02-1.39.02-2.09.02h-.89c-16.91 0-31.51-4.89-40.06-13.42-5.43-5.42-8.45-12.13-8.99-19.98C3.08 56.59-17.44 69.81-39.59 69.81c-2.96 0-5.96-.24-8.69-.7h-67.5c-1.11 8.13.26 14.71 3.98 19.08 2.94 3.46 7.29 5.25 12.35 5.25 15.03 0 21.31-4.66 27.4-10.29l.42-.39h.58s.34 0 .49-.01l1.62-.17v1.63s0 .75.07 2.03v17.79l-.85.4c-5.23 2.41-13.87 3.59-26.42 3.59-22.33 0-37.63-14.86-40.17-38.89h-16.57V53.87h16.2V-64.46h21.31V53.87h35.95c-14.32-13.19-22.76-33-22.76-53.82 0-38.47 28.08-69.77 62.59-69.77 34.51 0 62.6 31.3 62.6 69.77 0 2.63-.13 5.25-.39 7.83C29.04.97 38.76-3.23 51.4-8.68l1.75-.75C70.79-16.9 81.01-23.37 81.01-34.3c0-4.85-1.69-8.98-5.02-12.28-4.74-4.71-12.59-7.31-21.5-7.31-13.3 0-24.12 4.9-37.36 16.92l-2.46 2.23v-26.04l.67-.43c7.89-5.08 20.01-8 33.25-8 8.51.03 50.98 2.14 50.98 41.17C99.46-7.11 82.43 2.01 63.54 10.2c-2.75 1.36-5.29 2.59-7.62 3.73-16.59 8.04-22.18 10.75-22.01 20.91 0 19.37 20.44 20.35 24.54 20.35 4.66 0 8.84-.65 12.74-1.96 6.95-2.61 9.19-7.75 11.79-13.71l1.48-3.32 34.91-84.18c-5.38-12.27-11.88-26.16-16.6-35.48l-9.33-17.41h21.42l.39.86c7.72 17.06 40.1 95.88 47.17 113.09 5.61-10.93 16.9-15.81 33.28-22.9 17.63-7.45 27.84-13.91 27.84-24.85 0-4.85-1.69-8.99-5.02-12.3-4.68-4.65-12.37-7.29-21.15-7.29-13.76-.02-25.15 5.18-39.22 18.3l-3.59 2.99v-26.11l.53-.44c7.56-6.3 21.04-10.06 36.05-10.06 8.51.03 50.98 2.17 50.98 41.16-.11 20.94-17.14 30.06-36.03 38.25l-.02-.04z" style="fill:#0077be;fill-opacity:1;fill-rule:nonzero;stroke:none" transform="translate(288.98 100.87)"/><path d="M0 0c-21.53 0-31.54-7.38-38.87-14.9l-.2 13.19h-20.79v-132.36h21.3l-.02 96.02c.51 10.96 16.58 21.68 28.21 21.68 15.05 0 26.39-9.94 26.39-23.13v-94.55h21.3l-.03 103.01C36.69-18.39 21.85-.01-.01-.01H0z" style="fill:#0077be;fill-opacity:1;fill-rule:nonzero;stroke:none" transform="translate(98.95 170.45)"/><path d="M0 0v-171.92h23.29L23.28 0Z" style="fill:#0077be;fill-opacity:1;fill-rule:nonzero;stroke:none" transform="translate(0 208.32)"/><path d="m0 0-25.54 68.667h-.419L-51.71 0Zm6.281-16.748H-57.99l-11.724-30.984h-25.959l56.106 137.753h30.565L46.895-47.732h-29.1z" style="fill:#fff;fill-opacity:1;fill-rule:nonzero;stroke:none" transform="translate(702.033 79.305)"/><path d="M765.888 169.327h24.913V31.574h-24.913z" style="fill:#fff;fill-opacity:1;fill-rule:nonzero;stroke:none"/><path d="M0 0c0-6.7 1.675-12.771 4.605-19.261C21.353-17.167 28.681-9.212 28.681 1.675c0 8.164-5.234 14.236-14.236 14.236C5.653 15.911 0 9.63 0 0m-1.884-87.718c8.793 0 16.539 2.302 23.656 6.699C9.63-68.877-1.675-54.222-9.84-39.358h-.837c-12.143-1.885-19.052-10.887-19.052-22.61 0-14.865 10.468-25.75 27.845-25.75M80.6-86.462v-19.68c-1.046-.209-3.14-.627-5.861-.627-12.562 0-25.541 4.186-38.103 12.979-11.305-8.584-24.703-13.398-39.986-13.398-31.612 0-49.616 19.051-49.616 44.801 0 19.47 12.352 35.799 35.171 39.777-3.559 9.42-5.444 17.376-5.444 23.447 0 20.307 13.19 33.915 36.846 33.915 22.82 0 35.591-13.399 35.591-32.031 0-19.679-13.818-33.706-37.474-36.008 6.699-11.305 16.329-23.029 25.75-32.241C45.22-54.85 51.081-41.661 54.85-27.425h20.935c-5.024-18.423-12.77-36.218-23.447-50.245 9.002-6.071 17.585-9.002 25.122-9.002.628 0 1.675 0 3.14.21" style="fill:#fff;fill-opacity:1;fill-rule:nonzero;stroke:none" transform="translate(911.594 136.668)"/><path d="M0 0c24.704 0 40.823 16.539 40.823 48.151 0 31.403-17.376 47.732-43.754 47.732h-28.681V0Zm-56.734 116.818h52.756c43.126 0 69.715-24.912 69.715-68.667 0-44.173-25.123-69.086-65.318-69.086h-57.153z" style="fill:#fff;fill-opacity:1;fill-rule:nonzero;stroke:none" transform="translate(1112.154 52.508)"/><path d="M1198.824 169.327h24.912V31.574h-24.912z" style="fill:#fff;fill-opacity:1;fill-rule:nonzero;stroke:none"/><path d="M0 0c0 44.173 30.565 72.435 71.179 72.435 34.753 0 60.922-18.632 60.922-50.035 0-2.303-.209-5.652-.419-8.164h-22.401c.21 2.512.21 4.815.21 6.699 0 19.469-16.748 30.566-37.893 30.566-26.587 0-46.266-19.889-46.266-51.711 0-30.775 20.307-49.825 45.22-49.825 21.981 0 38.311 12.77 38.311 31.403v3.14H66.155V.419h66.993v-67.83h-20.935c.419 5.443 1.046 15.282 1.256 24.703h-.21c-4.186-15.911-19.678-26.797-44.801-26.797C29.1-69.505 0-43.126 0 0" style="fill:#fff;fill-opacity:1;fill-rule:nonzero;stroke:none" transform="translate(1244.67 98.985)"/><path d="M1401.892 169.327h24.913V31.574h-24.913z" style="fill:#fff;fill-opacity:1;fill-rule:nonzero;stroke:none"/><path d="M0 0h-42.708v20.726H67.831V0H25.122v-117.027H0Z" style="fill:#fff;fill-opacity:1;fill-rule:nonzero;stroke:none" transform="translate(1486.05 148.6)"/><path d="m0 0-25.54 68.667h-.419L-51.71 0Zm6.281-16.748H-57.99l-11.724-30.984h-25.959l56.106 137.753h30.565L46.895-47.732h-29.1z" style="fill:#fff;fill-opacity:1;fill-rule:nonzero;stroke:none" transform="translate(1632.177 79.305)"/><path d="M0 0h25.122v-116.818h68.249v-20.935H0Z" style="fill:#fff;fill-opacity:1;fill-rule:nonzero;stroke:none" transform="translate(1694.984 169.327)"/><path d="M1851.37 169.327h24.913V31.574h-24.913z" style="fill:#fff;fill-opacity:1;fill-rule:nonzero;stroke:none"/><path d="M0 0h37.683l65.527-104.676h.419L103.21 0h23.657v-137.753H97.139L23.657-20.936h-.209l.209-116.817H0Z" style="fill:#fff;fill-opacity:1;fill-rule:nonzero;stroke:none" transform="translate(1902.031 169.327)"/><path d="M0 0h37.683l65.527-104.676h.419L103.21 0h23.657v-137.753H97.139L23.656-20.936h-.208l.208-116.817H0Z" style="fill:#fff;fill-opacity:1;fill-rule:nonzero;stroke:none" transform="translate(2053.602 169.327)"/><path d="M0 0c0 30.775-20.516 49.407-46.057 49.407-25.331 0-45.848-18.632-45.848-49.407 0-31.612 20.517-50.663 45.848-50.663C-20.516-50.663 0-31.612 0 0m-117.446 0c0 43.755 31.403 70.342 71.389 70.342 40.196 0 71.598-26.587 71.598-70.342 0-44.592-31.402-71.598-71.598-71.598-39.986 0-71.389 27.006-71.389 71.598" style="fill:#fff;fill-opacity:1;fill-rule:nonzero;stroke:none" transform="translate(2317.804 101.078)"/><path d="M0 0h28.263l43.126-114.725h.419L114.306 0h25.96l-55.06-137.753H54.641Z" style="fill:#fff;fill-opacity:1;fill-rule:nonzero;stroke:none" transform="translate(2345.232 169.327)"/><path d="m0 0-25.54 68.667h-.419L-51.709 0Zm6.281-16.748H-57.99l-11.724-30.984h-25.959l56.106 137.753h30.565L46.895-47.732h-29.1z" style="fill:#fff;fill-opacity:1;fill-rule:nonzero;stroke:none" transform="translate(2563.799 79.305)"/><path d="M0 0h-42.708v20.726H67.83V0H25.122v-117.027H0Z" style="fill:#fff;fill-opacity:1;fill-rule:nonzero;stroke:none" transform="translate(2636.236 148.6)"/><path d="M2720.605 169.327h24.913V31.574h-24.913z" style="fill:#fff;fill-opacity:1;fill-rule:nonzero;stroke:none"/><path d="M0 0c0 30.775-20.516 49.407-46.057 49.407-25.331 0-45.848-18.632-45.848-49.407 0-31.612 20.517-50.663 45.848-50.663C-20.516-50.663 0-31.612 0 0m-117.446 0c0 43.755 31.402 70.342 71.389 70.342 40.195 0 71.598-26.587 71.598-70.342 0-44.592-31.403-71.598-71.598-71.598-39.987 0-71.389 27.006-71.389 71.598" style="fill:#fff;fill-opacity:1;fill-rule:nonzero;stroke:none" transform="translate(2883.897 101.078)"/><path d="M0 0h37.683l65.527-104.676h.419L103.21 0h23.657v-137.753H97.139L23.656-20.936h-.208l.208-116.817H0Z" style="fill:#fff;fill-opacity:1;fill-rule:nonzero;stroke:none" transform="translate(2929.328 169.327)"/><path d="M0 0c18.214 0 28.681 9.211 28.681 28.053 0 18.214-11.095 28.262-31.193 28.262h-30.984V0Zm-58.618 77.251h56.943c34.125 0 54.223-17.167 54.223-47.942 0-29.937-18.005-47.104-51.082-47.104h-34.962v-42.708h-25.122z" style="fill:#fff;fill-opacity:1;fill-rule:nonzero;stroke:none" transform="translate(3185.574 92.076)"/><path d="m0 0-25.54 68.667h-.419L-51.709 0Zm6.281-16.748H-57.99l-11.723-30.984h-25.96l56.106 137.753h30.565L46.895-47.732h-29.1z" style="fill:#fff;fill-opacity:1;fill-rule:nonzero;stroke:none" transform="translate(3327.727 79.305)"/><path d="M0 0c20.307 0 29.1 8.793 29.1 23.448 0 13.817-9.63 22.19-29.728 22.19h-35.171V0Zm-60.921 66.574H-.419c35.381 0 53.595-15.283 53.595-39.986 0-17.795-7.747-29.937-23.867-32.868v-.419c16.748-2.513 23.029-14.236 23.029-30.775v-33.705H27.007v33.287c0 13.817-5.653 21.353-24.076 21.353h-38.73v-54.64h-25.122z" style="fill:#fff;fill-opacity:1;fill-rule:nonzero;stroke:none" transform="translate(3451.455 102.753)"/><path d="M0 0h-42.708v20.726H67.83V0H25.122v-117.027H0Z" style="fill:#fff;fill-opacity:1;fill-rule:nonzero;stroke:none" transform="translate(3556.552 148.6)"/><path d="M0 0h37.684l65.526-104.676h.419L103.21 0h23.657v-137.753H97.139L23.656-20.936h-.208l.208-116.817H0Z" style="fill:#fff;fill-opacity:1;fill-rule:nonzero;stroke:none" transform="translate(3639.874 169.327)"/><path d="M0 0h94.208v-20.936H25.122v-39.357h54.85v-16.33h-54.85v-40.195h70.971v-20.935H0Z" style="fill:#fff;fill-opacity:1;fill-rule:nonzero;stroke:none" transform="translate(3791.446 169.327)"/><path d="M0 0c20.307 0 29.1 8.793 29.1 23.448 0 13.817-9.63 22.19-29.728 22.19h-35.171V0Zm-60.921 66.574H-.419c35.381 0 53.594-15.283 53.594-39.986 0-17.795-7.746-29.937-23.866-32.868v-.419c16.748-2.513 23.029-14.236 23.029-30.775v-33.705H27.007v33.287c0 13.817-5.653 21.353-24.076 21.353h-38.73v-54.64h-25.122z" style="fill:#fff;fill-opacity:1;fill-rule:nonzero;stroke:none" transform="translate(3965.834 102.753)"/></g></svg>
