<svg data-name="Layer 1" xmlns="http://www.w3.org/2000/svg" viewBox="0 0 288 250"><path d="M1 80.75V69.68h10.98v80.21l.01.25v10.82H1V80.75zm164.73 66.75c6.79 6.16 12.9 9.34 20.72 9.34 8 .06 15.11-3.85 15.11-11.38 0-6.28-5.57-10-15.52-14.16-8.44-3.65-14.72-6.21-18-11.49a41.19 41.19 0 0 1 .61 7.09c0 20.38-14.78 36.89-33 36.89s-33-16.51-33-36.89c0-12.28 5.37-23.16 13.63-29.87H93.9V161H84V97h-8.77v-6.62h8.88c1.15-13.42 9.47-21 21-21 7.47 0 11.56.78 13.93 1.87v10.19h-.35c-3.59-3.32-7.14-5.78-15.42-5.77-6.59 0-11 5.35-9.43 14.73h37.14a30.51 30.51 0 0 1 4.7-.37c13.23 0 24.64 8.69 29.91 21.25 0-.7-.07-1.43-.07-2.19 0-13.09 12.68-18.67 25.86-18.64h1.48c4.64-.07 11.25 1.44 15.28 2.5l3.66 9 4.16 10.21 11.18 27.25 1.31 4.38 1.46-4.38 14.14-35c2.6-9.63 12.92-13.8 24.33-13.78a41 41 0 0 1 14.87 2.42v10.58c-6.18-4.49-10.61-7.1-17.62-7.1-6.16 0-13.57 2.73-13.57 11.8-.12 6.81 4 8.06 16 14 9.87 4.28 19 9 19 20 0 18.25-18 21.41-26.74 21.44-7.82 0-15-1.93-19-5.25v-12l.64.53c7.11 6.63 13.4 10.07 21.52 10.07s15.11-3.85 15.11-11.38c0-6.28-5.57-9.95-15.53-14.16-9.51-4.12-15.76-6.85-18.31-13.66-3.88 9.45-21.93 53.39-26.18 62.78h-9.73l2.3-4.29 2-3.81.06-.12c2.44-4.8 6-12.33 9.15-19.54l-18.74-45.21-1.06-2.4c-1.43-3.27-2.77-6.29-6.82-7.82a22 22 0 0 0-7.16-1.11c-6.16 0-14 2.73-14 11.8-.12 6.81 4.44 8.05 16.45 14 9.86 4.28 19 9 19 20 0 18.25-18 21.41-26.75 21.43-6.95 0-13.38-1.52-17.53-4.19V147.5Zm46-45.57c.14.37.29.76.46 1.16l3.7 9-4.16-10.21Zm-.64 74.41c.5-.86 1.2-2.17 2-3.81l-2 3.81Zm-7.49-68.68c.29.63-.39-1-.39-1l.39 1Zm-90.94 20.06c.29 16.59 10.62 29.85 23.08 29.63s22.33-13.85 22.05-30.44-10.62-29.86-23.08-29.63-22.33 13.85-22 30.44ZM32.48 91.06l.12 8v.54h.1a3.23 3.23 0 0 1 .47-.83c4-4.32 9.11-8.61 21.2-8.61 11.57 0 19.06 9.82 19.36 16V161h-9.91v-50.32c0-7.71-6.77-13.29-15-13.29-6.89 0-15.74 6.2-16 12.47V161h-9.99V91.06h9.65Z" style="fill:#007cc3"/></svg>
