<svg xmlns="http://www.w3.org/2000/svg" viewBox="0 0 3369.48 218.48"><path d="m1446.43 21.46 35.08 167.97h-50.7l-7.47-36h-61.17l-21.55 36h-56.07l23.28-36-56.19-.04 165.59-30-5.2-24.21-4.38-21.69-9.2 15.36 10.62 3.89-64.56-.04 48.66-75.24h53.26Zm317 0h-122.56c.62.7.96 1.34 1.13 1.77.66 1.68.71 2.94.93 4.21.42 2.45.9 2.81.61 4.69-.57 3.63-1.23 3.28-2.34 5.42-1.13 2.18-1.84 4.66-2.04 5.38-.03.1.05.19.16.18.4-.02 1.22.08 1.25 1.31.05 1.63-1.83 4.81-2.37 5.72-.53.91-1.72 2.78-2.74 3.37-1.75 1.02-2.29.43-2.54.94s-2 3.81-2.27 4.7c-.33 1.12-.49 2.5-.56 3.52-.01.17.08.31.23.37 3.51 1.37 12.67 4.63 14.88 8.37l-30.97 10.05c4.33-.51 9.09-1.1 13.3-1.58 5.77-.66 15.1-1.7 18.1-1.67 2.96.03 6.64.79 7.72.94 3.63.49 6.86.61 10.78 1.4 3.93.79 5 2.18 5.75 2.68.17.11.95.76.95.76 4.78-.34 12.17-.81 13.74-.93.8-.07 2.44-.15 2.75-.19 14.9-1.9 23.06-9.03 30.18-13.36 7.87-4.8 19.7-8.71 28.17-8.94 10.95-.29 18.82 1.57 24.07 6.34 5.24 4.77 7.29 11.08 5.18 20.6-2.03 9.18-4.96 13.41-11.73 17.62s-14.25 5.56-23.07 4.75c-14.71-1.35-27.85-10.53-33.05-13.52-4.47-2.57-10.61-5.29-17.51-5.91-.66-.06-2.66-.11-4.05 0-.47.04-6.09.42-9.63.69.4 1.34.48 2.39.47 2.64-.11 1.8-1.1 2.66-2.21 2.52-1-.12-3.53-2.01-4.26-3.57-.07-.15-.3-.22-.3.03 0 .29.03.57 0 .83-.05.49-.35 2-1.41 2.3-.89.25-2.26.02-3.25-.77-.29-.23-.72-.12-.84.23-.38 1.09-.61 1.74-2.67 1.34-1.42-.15-1.12.4-2.03.57-2.2.42-3.26-.75-5.01-1.56s-1.17-2.47-2.9-2.76c-.34-.06-.92-.17-1.25-.2.86 3.01 1.96 6.68 2.76 12.6.02.16-.09.32-.26.34l-1.78.21a.28.28 0 0 0-.25.33c.45 2.29 1.56 6.6 1.79 9.69.43 5.63.36 7.28-.01 10.07-.03.2.14.37.33.32.55-.12 1.54-.4 2.05-.8.02-1.24.53-3.12.64-3.27.18-.25.37-.49.57-.71.15-.16.26-.35.32-.56l.46-1.62c.07-.24.17-.48.29-.7l2.43-4.37s.57-1.2 1.55-.93c0 0 1.61.87 1.57 2.55-.04 1.67-1.16 3.71-1.16 3.71l1.03 1.65s1.86.61 3.67-.72c0 0 .51-.31 1.55-1.16-.45-1.22.63-2.77 3.57-2.21 1.02.43 3.9 2.72.3 5.1-.14.09-.07.3.1.29 3.93-.24 3.44 4.51.77 5.95-.23.13-.29.44-.13.65.4.57 1 1.6.89 2.54 0 0 .01 1.25-3.81 2.56 0 0-1.17.47-.7 1.34.46.17.97.35 1.57.54 0 0 3.46.79 2.79 2.7 0 0-.56 1.62-3.85.55 0 0-1.99.12-3.24-.1-.58.19-3.21 1.03-6.26 1.56-.71.12-1.28.52-1.77 1.06l-.02.02c-2.12 2.44-8.61 5.79-11.52 5.83-3.22.04-3.63-2.45-5.98-4.91-4.55-4.76-5.33-10.73-6.02-16.63-.05-.39-.62-.39-.66 0-.82 6.93-1.22 13.17-5.06 16.59-2.34 2.09-6.01 3.73-11.96 5.14-22.56 5.35-46.84 19.2-44.09 22.35 1.08 1.24 3.64-1.24 8.09-3.29 16.82-7.74 38.6-9.28 45.61-8.73.51.04.9.45.96.96.09.84.35 2.37 1.08 4.97.61 2.17 1.31 6.04 3.61 8.2 4.19 3.92 3.62 5.37 2.63 10.63-.64 3.44 4.06 6.3 4.18 6.43h48.52l7.47-36h49.25c50.34 0 72.71-22.98 81.25-67 3.97-20.46 3.85-64.98-61.93-64.98l.02-.02ZM1547.1 189.43c.68-.74 1.46-1.58 2.39-2.53 2.12-2.17.46-7.68.87-9.79.54-2.77 5.33-4.24 6.08-6.95 1.02-3.69-6.28-3.06-2.8-6.97 2.18-2.44 5.36-1.59 5.14-3.99-.35-3.9 3.45-6.54 5.06-7.76 6.97-5.29 22.6-13.63 32.06-16.39 9.93-2.89-3.75-2.62-15.07 1.52-10.28 3.77 13.3-11.01 31.97-15.69 13.3-3.34-9.77-3.98-31.02 5.36-6.75 2.97-10.52 4.79-13.22 6.54-.11.07-.25-.04-.19-.16 1.05-2.15 3.26-5.83 2.61-9.64-.42-2.49-.16-5.26.86-7.17.81-1.52.32-5.63 1.21-7.76a.36.36 0 0 1 .43-.19l11.42 3.57 44.62-15.2-42.49 6.3-14.74-12.6c-2.08-2.21-4.25-10.9-2.07-14.15 3.11-4.62 6.28-8.15 7.65-9.35 2.01-1.76 8.15-2.52 11.17-4.04 3.37-1.7 6.06-.55 8.49-.93 2.35-.48 6.51-1.94 7.75-2.41.07-.02.1-.08.1-.15 0-.46-.08-2.17-.25-2.94-.67-3.11-1.04-6.04-.83-8.16.25-2.65 2.56-4.96 2.67-6.72.11-1.76-1.16-3.57-.19-5.29.91-1.6 1.15-2.84 2.18-6.21-.26-2-1.53-2.71-.61-4.76.48-1.08 1.31-2.61 1.67-3.37h-155.24l8.87 42.59h61.18l-6.73 32.69 46.1.02-94.12 17.05 44.52-.09-15.6 75.71h48.1Zm163.87-97.28c1.02.52 2.26-.29 2.28-1.6.05-4.24.81-6.17 1.72-9.56.37-1.36-.78-2.45-1.94-1.83-6.85 3.7-11.85 5.25-14.83 5.9-.33.07-.88.47-.87 1.07 0 .6.34.95.66 1.03 2.89.7 7.33 2.07 12.99 4.98h-.01Zm95.79 90.25h-2.77l.33-1.63h7.55l-.33 1.63h-2.76l-1.41 7.03h-2l1.4-7.03h-.01Zm15.94-1.63-1.72 8.66h-1.88l1.02-5.15-3.3 4.23h-.89l-1.78-4.28-1.04 5.2h-1.88l1.73-8.66h1.63l2.17 5.39 4.23-5.39h1.72Zm68.87-159.27h30.65v68.7h89.38V21.5h30.39v168.04h-30.39v-74.83h-89.38v74.83h-30.65V21.5Zm180.81 0h114.92v25.54h-84.28v48.01h66.91v19.92h-66.91V164h86.58v25.54h-117.22V21.5Zm251.81 130.25h-78.4l-14.3 37.8h-31.67l68.44-168.05h37.29l68.19 168.04h-35.5l-14.05-37.8Zm-7.66-20.43-31.16-83.77h-.51l-31.41 83.77h63.08Zm76.62-109.82h64.36c52.61 0 85.04 30.39 85.04 83.77s-30.65 84.28-79.68 84.28h-69.72V21.5Zm69.21 142.51c30.14 0 49.8-20.18 49.8-58.74s-21.2-58.23-53.38-58.23h-34.99v116.97h38.57Zm150.16-43.68c37.8-17.88 45.46-27.58 45.46-46.74 0-17.62-11.75-29.37-31.41-29.37-22.47 0-34.99 13.79-34.99 37.54 0 5.62.51 12 1.28 16.86h-26.82c-.77-3.83-1.28-10.98-1.28-18.9 0-36.27 21.2-60.53 62.57-60.53 38.31 0 60.53 22.22 60.53 52.87 0 26.05-11.49 43.42-56.95 64.61-31.67 14.56-34.73 19.41-34.73 27.84h94.75v25.03h-127.18c0-37.29 4.85-48.78 48.78-69.21h-.01Zm105.99-98.83h30.65v68.7h89.38V21.5h30.39v168.04h-30.39v-74.83h-89.38v74.83h-30.65V21.5Zm180.81 0h114.92v25.54h-84.28v48.01h66.91v19.92h-66.91V164h86.58v25.54h-117.22V21.5Zm251.81 130.25h-78.4l-14.3 37.8h-31.67L3095.2 21.5h37.29l68.19 168.04h-35.5l-14.05-37.8Zm-7.66-20.43-31.16-83.77h-.51l-31.41 83.77h63.08Zm76.61-109.82h64.36c52.61 0 85.04 30.39 85.04 83.77s-30.65 84.28-79.68 84.28h-69.72V21.5Zm69.21 142.51c30.14 0 49.8-20.18 49.8-58.74s-21.2-58.23-53.38-58.23h-34.99v116.97h38.57ZM217.77 10.46l-6.57 9.95c44.21 18.38 61.9 51.56 61.9 87.29 0 17.87-4.8 33.95-14.15 33.95h-115.7c-15.66 0-20.46-5.62-13.39-19.91 12.63-25.27 50.53-73.51 74.02-102.61 3.54-4.34 6.32-10.98-6.06-14.29C185.18 1.53 164.97 0 147.79 0 60.63.26 0 47.73 0 109.24c0 56.41 52.55 109.24 147.54 109.24 41.94 0 93.47-12 122.53-45.43h-25.01c-28.55 26.03-65.43 31.9-97.26 31.9-76.55 0-125.05-40.33-125.05-95.71 0-51.3 54.82-97.25 124.04-97.25 8.34 0 11.12 1.79 2.27 12.76-17.68 22.21-49.26 66.36-64.17 92.14-15.92 27.57.25 50.03 36.13 50.03h145.01c8.84 0 14.15-5.1 19.2-14.55 4.29-7.4 10.61-22.72 10.61-43.14 0-41.6-30.82-79.89-78.06-98.78Zm945.61 90.61h-98.28c3.28-12.76 12.88-21.44 31.32-21.44h93.98V58.19h-100.04c-57.1 0-70.48 40.84-70.48 64.06h121.77c16.67 0 16.67 22.72.5 22.72h-134.4V58.19h-40.42v86.78h-67.2c-17.94 0-25.52-8.68-25.52-22.21V58.19h-64.93l-58.1 37.01-50.02-37.01h-144c-41.68 0-71.24 24.5-74.78 55.39h27.03c-10.86 7.15-19.2 18.89-24 31.65h-85.14c-16.17 0-23.49-8.42-23.49-24.25V58.19h-40.67v53.34c0 33.95 18.19 55.13 59.62 55.13h283.71l58.36-37.01 50.02 37.26h59.87l-78.06-57.68 63.66-40.07v61c0 18.89 24.25 37.01 46.23 37.01h283.46c49.27-.26 49-66.11 0-66.11Zm-490.87 44.41H534.83c1.52-11.74 7.33-23.23 26.27-23.23h85.39v-21.18H532.81c2.02-8.68 10.86-21.18 31.33-21.18h90.19V68.15l64.93 47.73-46.74 29.61Z" fill="#fff"/></svg>
