<svg viewBox="0 0 82 48" fill="none" xmlns="http://www.w3.org/2000/svg"><path fill-rule="evenodd" clip-rule="evenodd" d="M38.261 32.789h-4.008l.399-1.91h10.261l-.415 1.91H40.49l-2.118 10.238h-2.246l2.135-10.238Zm19.351 6.246c.004-.416.06-.85.15-1.3l1.43-6.855h2.246l-1.43 6.82c-.072.398-.127.763-.13 1.075-.016 1.649 1.098 2.447 2.808 2.447 1.918 0 3.24-1.058 3.764-3.54l1.412-6.802h2.21l-1.447 6.958c-.742 3.575-2.934 5.362-6.182 5.362-2.971 0-4.855-1.596-4.831-4.165Zm21.715-4.285c.013-1.32-.914-1.961-2.555-1.961h-2.87l-1.014 4.823h2.974c2.177 0 3.448-.989 3.465-2.863Zm-1.32 4.425 2.123 3.852h-2.384l-1.953-3.558h-3.302l-.725 3.558h-2.263l2.533-12.147h4.996c2.92 0 4.582 1.354 4.56 3.661-.022 2.36-1.35 4.009-3.585 4.634Zm-23.837-2.23c.16-1.181.056-2.295-.519-3.074-.283-.39-.674-.7-1.151-.907-.477-.207-1.035-.303-1.619-.305a4.807 4.807 0 0 0-1.706.306 4.143 4.143 0 0 0-1.413.908c-.8.778-1.224 1.892-1.405 3.072-.16 1.18-.055 2.293.52 3.068a2.77 2.77 0 0 0 1.149.906c.476.206 1.032.302 1.616.304a4.81 4.81 0 0 0 1.704-.303 4.145 4.145 0 0 0 1.413-.905c.8-.776 1.228-1.889 1.41-3.07Zm2.23 0a8.412 8.412 0 0 1-.717 2.367 6.919 6.919 0 0 1-1.61 2.145 6.662 6.662 0 0 1-2.302 1.337 7.384 7.384 0 0 1-2.413.392 6.434 6.434 0 0 1-2.301-.39 4.535 4.535 0 0 1-1.917-1.338c-.51-.61-.84-1.364-.99-2.145-.153-.784-.135-1.588-.032-2.368.123-.78.34-1.584.719-2.367a6.92 6.92 0 0 1 1.613-2.143 6.661 6.661 0 0 1 2.302-1.335 7.387 7.387 0 0 1 2.411-.389 6.434 6.434 0 0 1 2.298.39 4.53 4.53 0 0 1 1.914 1.336c.51.608.84 1.361.991 2.142.153.783.136 1.586.033 2.366Zm8.772-22.071c.145.075.32-.04.323-.227.006-.604.114-.88.243-1.363.052-.194-.11-.35-.275-.26-.972.527-1.682.748-2.104.841-.046.01-.124.067-.124.153s.049.136.094.147c.41.1 1.04.295 1.843.71ZM41.922 28.74c.095-.106.206-.225.338-.36.3-.31.066-1.095.124-1.396.076-.396.756-.604.862-.991.144-.526-.892-.436-.397-.993.308-.348.76-.226.73-.569-.05-.555.49-.932.717-1.105.988-.754 3.206-1.943 4.549-2.336 1.408-.412-.533-.374-2.139.217-1.458.538 1.888-1.568 4.536-2.236 1.886-.475-1.386-.568-4.4.764-.959.423-1.493.682-1.876.932-.016.01-.035-.006-.027-.023.15-.307.463-.831.37-1.374-.06-.355-.021-.75.124-1.022.115-.217.045-.803.17-1.105a.05.05 0 0 1 .062-.027l1.62.51 6.33-2.167-6.028.898-2.092-1.795c-.295-.316-.602-1.554-.293-2.018.441-.658.892-1.161 1.086-1.332.285-.25 1.156-.359 1.584-.575.478-.243.86-.079 1.205-.134.333-.068.922-.276 1.1-.343a.022.022 0 0 0 .014-.021 3.145 3.145 0 0 0-.036-.42c-.095-.442-.147-.86-.118-1.162.036-.378.363-.708.38-.959.015-.251-.166-.509-.028-.754.129-.228.163-.405.31-.885-.037-.285-.217-.386-.087-.678.069-.154.187-.372.237-.48H28.825l1.26 6.07h8.68l-.956 4.659 6.54.002-13.353 2.43 6.317-.012L35.1 28.74h6.822ZM72.614 4.8H55.227c.087.1.136.192.16.253.093.24.1.42.131.6.06.35.129.4.087.668-.082.518-.175.468-.333.773-.16.31-.261.663-.289.766-.004.015.008.027.023.026.056-.004.172.01.177.186.007.232-.26.685-.335.815-.076.13-.245.396-.389.48-.248.146-.325.062-.36.135-.037.074-.285.542-.322.67-.047.16-.07.356-.08.502a.052.052 0 0 0 .033.053c.498.196 1.798.66 2.11 1.192l-4.393 1.433c.614-.073 1.29-.157 1.887-.226.818-.094 2.142-.242 2.568-.238.42.003.943.113 1.096.133.515.07.973.088 1.53.2.557.113.71.31.815.382.024.016.135.108.135.108.679-.048 1.726-.115 1.949-.133.113-.01.345-.022.39-.028 2.114-.27 3.272-1.287 4.282-1.904 1.117-.684 2.795-1.242 3.997-1.274 1.553-.042 2.67.223 3.414.903.744.68 1.035 1.578.735 2.936-.288 1.308-.704 1.91-1.665 2.511-.96.6-2.021.792-3.273.677-2.087-.193-3.952-1.502-4.69-1.928-.633-.366-1.504-.754-2.484-.842a4.326 4.326 0 0 0-.574 0c-.067.006-.864.06-1.367.098.058.19.069.34.067.375-.015.257-.157.38-.313.36-.142-.018-.501-.286-.605-.509-.01-.022-.042-.032-.042.004 0 .04.005.081 0 .119-.007.07-.05.284-.2.328a.551.551 0 0 1-.461-.11.075.075 0 0 0-.12.033c-.054.155-.086.248-.38.19-.2-.021-.158.058-.286.082-.313.06-.464-.107-.711-.222-.248-.115-.166-.351-.412-.394-.048-.008-.13-.024-.177-.029.122.43.278.953.392 1.797a.043.043 0 0 1-.037.048l-.252.03a.04.04 0 0 0-.036.047c.064.327.22.94.255 1.382.061.802.05 1.038-.002 1.436-.004.027.02.052.048.046a.835.835 0 0 0 .29-.114 1.71 1.71 0 0 1 .091-.465c.026-.037.053-.07.082-.102a.195.195 0 0 0 .045-.079l.065-.231a.467.467 0 0 1 .042-.1l.344-.624s.08-.17.22-.132c0 0 .228.125.223.363-.006.239-.164.53-.164.53l.146.234s.264.087.52-.102c0 0 .074-.044.22-.165-.063-.173.09-.395.508-.314.144.061.554.388.042.726-.02.013-.009.043.014.042.559-.034.488.643.11.847-.034.018-.04.062-.02.093.058.081.143.228.127.363 0 0 .003.178-.54.364 0 0-.166.068-.1.191.066.024.138.05.223.076 0 0 .491.112.395.386 0 0-.079.23-.545.078 0 0-.283.017-.46-.015a6.651 6.651 0 0 1-.887.222.439.439 0 0 0-.252.15c0 .002-.002.003-.003.004-.301.348-1.222.826-1.634.831-.457.005-.515-.35-.848-.7-.646-.68-.756-1.53-.855-2.37-.006-.057-.087-.056-.094 0-.116.988-.173 1.876-.718 2.364-.332.298-.852.531-1.696.732-3.201.763-6.646 2.737-6.256 3.186.154.177.516-.177 1.148-.469 2.387-1.103 5.477-1.323 6.471-1.244a.15.15 0 0 1 .136.136c.012.12.05.338.153.708.087.309.186.861.512 1.168.595.559.514.766.374 1.515-.092.491.576.899.593.917h6.884l1.06-5.13h6.987c7.142 0 10.317-3.275 11.529-9.549.563-2.916.545-9.26-8.787-9.26Zm-44.976 0 4.978 23.94h-7.194l-1.06-5.13h-8.678l-3.058 5.13H4.67l3.303-5.13L0 23.602l23.494-4.276-.737-3.45-.621-3.091-1.305 2.19 1.506.553-9.159-.005L20.081 4.8h7.557Zm53.386 22.705-.244 1.234h-.267l.144-.733-.469.603h-.126l-.253-.61-.147.74h-.267l.246-1.234h.231l.307.769.6-.77h.245Zm-2.261.233h-.394l.047-.233h1.071l-.047.233h-.391l-.2 1.001h-.285l.199-1.002Z" fill="#000"/></svg>
