<svg id="Layer_1" data-name="Layer 1" xmlns="http://www.w3.org/2000/svg" viewBox="0 0 376 250"><defs><style>.cls-1{fill:#0a1f8f}</style></defs><path class="cls-1" d="m11.16 85.46-.11.43c6.14 3.69 8.33 10.16 6.37 17.53L1.21 163.63h29l15.32-57 13.12 33.5c6.54 14.72 13.23 23.55 37.05 23.55h14.77l21-78.14h-29l-15.33 57.54L75.16 112C70.17 97 61.8 85.46 37 85.46Zm315.39 79.08c-26.11 0-39.65-8.66-36.08-24 1.65-7 7.26-13.17 15.11-17.22 8.45-4.33 19.4-6.59 32.92-6.59 25.84 0 39.25 8.66 35.74 23.73-3.6 15.42-21.04 24.08-47.69 24.08ZM336 126c-10.16 0-15.12 6.41-17.27 14.44-.94 3.5-1.1 7.12.06 9.91 1.31 3.16 4 4.88 9.5 4.88 10 0 15.2-6.68 17.34-14.71S346.3 126 336 126Zm-121.14 3.56h14.62l3.07-11.31h-14.64l4.09-15.09h-26.68l-4.08 15.1h-12.38l-3.06 11.31h12.38l-4.08 15.11c-3.27 12.17 1.39 19.19 21.14 19.19 5 0 10.11 0 15.19-.2l2.95-10.94-4.85.07c-5.21 0-6.26-.51-7.4-1.72-1.78-1.94-.44-5.92 0-7.46Z"/><path style="fill:#d7282f" d="M171.62 96.54h-27.89l-3.66 13.49h27.9l3.65-13.49z"/><path class="cls-1" d="M165.76 118.25h-27.92l-7.16 26.42c-3.27 12.17 1.36 19.19 21.11 19.19 5 0 10.14 0 15.21-.2l2.94-10.94-4.75.07c-4.1 0-5.11-.51-6.24-1.72-1.79-1.94-.46-5.92 0-7.46Zm107.89 11.31h14.63l3.05-11.31h-14.65l4.06-15.09h-26.65L250 118.25h-12.37l-3 11.31H247l-4.07 15.11c-3.27 12.17 1.36 19.19 21.11 19.19 5 0 10.14 0 15.2-.2l2.95-10.94-4.84.07c-5.22 0-6.28-.51-7.39-1.72-1.79-1.94-.47-5.92-.05-7.46Z"/></svg>
