<svg data-name="Livello 1" xmlns="http://www.w3.org/2000/svg" viewBox="0 0 1390.95 417.18"><path d="M791.41 392.59c-8.71 0-16.36-1.12-22.95-3.35s-11.72-5.72-15.38-10.46c-3.66-4.74-5.49-10.77-5.49-18.09s1.81-13.12 5.43-17.86c3.62-4.74 8.63-8.27 15.03-10.58 6.4-2.31 13.79-3.47 22.2-3.47s16.38 1.12 22.77 3.35c6.4 2.24 11.33 5.7 14.8 10.4 3.47 4.7 5.2 10.75 5.2 18.15v4.39h-58.38c.15 2.85.89 5.24 2.2 7.17 1.31 1.93 3.22 3.35 5.72 4.28 2.5.92 5.53 1.39 9.07 1.39 2.31 0 4.37-.23 6.18-.69 1.81-.46 3.33-1.1 4.57-1.91 1.23-.81 2.16-1.71 2.77-2.72.62-1 .92-2.04.92-3.12h26.82c0 3.85-1.1 7.23-3.29 10.12-2.2 2.89-5.2 5.3-9.02 7.23-3.81 1.93-8.23 3.37-13.24 4.34-5.01.96-10.33 1.45-15.95 1.45Zm-15.58-38.5h30.32c0-1.3-.31-2.53-.92-3.67-.61-1.15-1.51-2.18-2.7-3.1-1.19-.92-2.64-1.65-4.36-2.18-1.72-.53-3.66-.8-5.8-.8-3.37 0-6.2.44-8.5 1.32-2.3.88-4.12 2.07-5.45 3.56-1.34 1.49-2.2 3.12-2.58 4.88Zm82.61 63.09c-3.07 0-5.79-.22-8.16-.65-2.36-.43-4.45-.93-6.27-1.48v-17.03h10.84c2.81 0 5.06-.36 6.73-1.08 1.67-.72 2.98-1.69 3.94-2.91.95-1.22 1.73-2.51 2.34-3.88l-29.08-60.22h28.77l10.52 27.55c.47 1.18 1 2.64 1.6 4.37.59 1.73 1.18 3.47 1.77 5.2.59 1.73 1.08 3.27 1.48 4.61h1.18c.39-1.02.81-2.19 1.24-3.49.43-1.3.91-2.62 1.42-3.96.51-1.34.98-2.62 1.42-3.84.43-1.22.81-2.26 1.12-3.13l10.17-27.31h27.78l-27.43 57.22c-1.89 3.94-3.94 7.7-6.15 11.29-2.21 3.59-4.85 6.8-7.92 9.64-3.07 2.84-6.82 5.06-11.23 6.68-4.42 1.61-9.77 2.42-16.08 2.42Zm110.89-24.59c-8.71 0-16.36-1.12-22.95-3.35s-11.72-5.72-15.38-10.46c-3.66-4.74-5.49-10.77-5.49-18.09s1.81-13.12 5.43-17.86c3.62-4.74 8.63-8.27 15.03-10.58 6.4-2.31 13.79-3.47 22.2-3.47s16.38 1.12 22.77 3.35c6.4 2.24 11.33 5.7 14.8 10.4 3.47 4.7 5.2 10.75 5.2 18.15v4.39h-58.38c.15 2.85.89 5.24 2.2 7.17 1.31 1.93 3.22 3.35 5.72 4.28 2.5.92 5.53 1.39 9.07 1.39 2.31 0 4.37-.23 6.18-.69 1.81-.46 3.33-1.1 4.57-1.91 1.23-.81 2.16-1.71 2.77-2.72.62-1 .92-2.04.92-3.12h26.82c0 3.85-1.1 7.23-3.29 10.12-2.2 2.89-5.2 5.3-9.02 7.23-3.81 1.93-8.23 3.37-13.24 4.34-5.01.96-10.33 1.45-15.95 1.45Zm-16.55-38.5h30.32c0-1.3-.31-2.53-.92-3.67-.61-1.15-1.51-2.18-2.7-3.1-1.19-.92-2.64-1.65-4.36-2.18-1.72-.53-3.66-.8-5.8-.8-3.37 0-6.2.44-8.5 1.32-2.3.88-4.12 2.07-5.45 3.56-1.34 1.49-2.2 3.12-2.58 4.88Zm90.46 37.34-28.65-61.5h27.59l9.63 26.09c.46 1.16.93 2.44 1.39 3.83.46 1.39.91 2.75 1.33 4.06.42 1.32.75 2.44.99 3.36h1.04c.31-1.08.66-2.3 1.04-3.65.39-1.35.77-2.71 1.16-4.06.39-1.35.73-2.53 1.04-3.54l8.58-26.09h29.22l8.23 26.09c.31 1.01.66 2.2 1.04 3.6.39 1.39.75 2.76 1.1 4.12.35 1.35.64 2.53.87 3.54h.93c.31-1.08.68-2.3 1.1-3.65.42-1.35.87-2.71 1.33-4.06.46-1.35.89-2.53 1.28-3.54l9.86-26.09h25.64l-28.65 61.5h-26.12l-8.44-25.98a222.678 222.678 0 0 1-2.41-8.26c-.34-1.24-.62-2.27-.84-3.09h-.9c-.22.83-.51 1.88-.84 3.15-.34 1.28-.71 2.64-1.12 4.11-.41 1.46-.84 2.91-1.29 4.33l-8.21 25.76h-26.92Zm150.14 1.16c-8.71 0-16.36-1.12-22.95-3.35s-11.72-5.72-15.38-10.46c-3.66-4.74-5.49-10.77-5.49-18.09s1.81-13.12 5.43-17.86c3.62-4.74 8.63-8.27 15.03-10.58 6.4-2.31 13.79-3.47 22.2-3.47s16.38 1.12 22.77 3.35c6.4 2.24 11.33 5.7 14.8 10.4 3.47 4.7 5.2 10.75 5.2 18.15v4.39h-58.38c.15 2.85.89 5.24 2.2 7.17 1.31 1.93 3.22 3.35 5.72 4.28 2.5.92 5.53 1.39 9.07 1.39 2.31 0 4.37-.23 6.18-.69 1.81-.46 3.33-1.1 4.57-1.91 1.23-.81 2.16-1.71 2.77-2.72.62-1 .92-2.04.92-3.12h26.82c0 3.85-1.1 7.23-3.29 10.12-2.2 2.89-5.2 5.3-9.02 7.23-3.81 1.93-8.23 3.37-13.24 4.34-5.01.96-10.33 1.45-15.95 1.45Zm-15.76-38.5h30.32c0-1.3-.31-2.53-.92-3.67-.61-1.15-1.51-2.18-2.7-3.1-1.19-.92-2.64-1.65-4.36-2.18-1.72-.53-3.66-.8-5.8-.8-3.37 0-6.2.44-8.5 1.32-2.3.88-4.12 2.07-5.45 3.56-1.34 1.49-2.2 3.12-2.58 4.88Zm93.23 39.42c-3.84 0-7.42-.29-10.74-.87-3.32-.58-6.2-1.59-8.65-3.03-2.45-1.44-4.35-3.42-5.71-5.94-1.36-2.52-2.03-5.75-2.03-9.71 0-5.2 1.26-9.3 3.79-12.31 2.52-3.01 6.12-5.24 10.79-6.68 4.67-1.44 10.23-2.37 16.67-2.78 6.44-.41 13.62-.62 21.53-.62v1.13c0-2.07-.55-3.73-1.64-5-1.09-1.26-2.64-2.18-4.63-2.76-1.99-.57-4.35-.86-7.09-.86-1.64 0-3.48.13-5.51.4s-3.79.77-5.27 1.49c-1.48.73-2.23 1.82-2.23 3.27v.46h-24.05c-.08-.3-.11-.54-.11-.73v-.73c0-3.51 1.49-6.65 4.48-9.42 2.99-2.77 7.43-4.94 13.32-6.51 5.9-1.57 13.15-2.36 21.77-2.36 7.94 0 14.68.66 20.24 1.96 5.56 1.31 9.79 3.38 12.7 6.22s4.37 6.66 4.37 11.44v22.1c0 1.2.3 2.23.91 3.08.6.86 1.51 1.29 2.72 1.29h5.16v14.97c-1.36.58-3.33 1.13-5.93 1.67-2.6.54-5.33.8-8.19.8-4.07 0-7.38-.39-9.94-1.18-2.56-.78-4.52-1.84-5.88-3.16-1.36-1.32-2.34-2.76-2.94-4.33h-.9a41.108 41.108 0 0 1-7.29 4.58c-2.67 1.32-5.63 2.33-8.87 3.03-3.24.7-6.86 1.05-10.85 1.05Zm7.28-15.28c1.15 0 2.72-.13 4.71-.4 1.99-.27 4.04-.75 6.14-1.44 2.28-.75 4.18-1.76 5.69-3.04 1.21-1.03 1.83-2.6 1.83-4.19v-3.79c-6.66 0-12.08.33-16.25.98-4.17.65-7.22 1.55-9.13 2.7-1.91 1.15-2.87 2.53-2.87 4.13 0 1.46.48 2.55 1.44 3.27.96.73 2.2 1.21 3.73 1.44 1.53.23 3.1.34 4.71.34Zm60.1 13.2v-59.31h21.96l1.72 8.79h2.34c1.39-2.56 3.07-4.65 5.05-6.26 1.98-1.61 4.1-2.78 6.37-3.51 2.27-.73 4.54-1.1 6.81-1.1 1.61 0 3.09.11 4.45.33 1.35.22 2.69.59 4.01 1.1v18.23h-12c-2.43 0-4.55.37-6.35 1.1-1.81.73-3.3 1.73-4.47 3-1.18 1.27-2.06 2.77-2.65 4.5-.59 1.73-.88 3.63-.88 5.71v27.44h-26.36ZM52.4 288.19H0V0h114.11c63.62 0 103.38 31.23 103.38 91.7s-39.76 91.7-103.38 91.7H52.4v104.8Zm59.23-150.05c35.78 0 54.86-16.82 54.86-46.44s-19.08-46.45-54.86-46.45H52.4v92.89h59.23Zm218.02 153.58c-60.1 0-102.7-44.1-102.7-109.44s42.6-109.44 102.7-109.44 102.7 44.1 102.7 109.44-42.59 109.44-102.7 109.44m0-42.09c32.64 0 52.94-25.26 52.94-67.35s-20.3-67.35-52.94-67.35-52.94 25.25-52.94 67.35 20.3 67.35 52.94 67.35M459.68 0h50.02v288.19h-50.02zm203.25 270.55c-12.81 13.63-32.82 21.25-56.44 21.25-41.23 0-72.05-24.45-72.05-62.54s30.02-57.32 70.45-65.74l57.24-12.03v-3.61c0-19.24-10-31.27-34.82-31.27-22.02 0-34.43 10.02-39.63 29.67l-46.43-10.43c10.01-35.68 39.63-62.14 88.86-62.14s79.66 24.05 79.66 72.57v91.4c0 17.24.8 35.28 3.2 50.51h-48.84c-.8-5.21-1.2-12.03-1.2-17.64m-.8-82.26-44.18 9.62c-19.5 4.41-34.23 11.22-34.23 29.26 0 15.64 11.54 24.05 31.45 24.05 24.28 0 46.97-12.83 46.97-37.68v-25.26Zm204.83-62.77c-5.96-.8-11.51-1.2-16.67-1.2-30.17 0-52.4 19.24-52.4 51.72v109.77h-50.02V76.22h50.02v33.67c9.13-22.85 29.77-34.88 56.37-34.88 4.76 0 9.13.4 12.7.8v49.71Zm112.31 166.2c-60.11 0-102.7-44.1-102.7-109.44s42.59-109.44 102.7-109.44 102.7 44.1 102.7 109.44-42.6 109.44-102.7 109.44m0-42.09c32.64 0 52.94-25.26 52.94-67.35s-20.3-67.35-52.94-67.35-52.94 25.25-52.94 67.35 20.3 67.35 52.94 67.35M1109.9 0h50.02v50.02h-50.02V0Zm50.02 285.81h-50.02V76.22h50.02v209.6ZM1340.93 0h50.02v288.19h-50.02V262.5c-14.12 20.87-35.5 30.1-61.31 30.1-60.1 0-95.2-49.77-95.2-109.58s35.09-109.58 95.2-109.58c25.81 0 47.19 9.23 61.31 30.1V0Zm-49.76 116.53c-33.83 0-53.74 26.86-53.74 65.74s19.9 65.75 53.74 65.75c29.85 0 52.14-21.65 52.14-59.33v-12.43c0-38.48-22.29-59.73-52.14-59.73"/><path d="M676.8 397.75h-39.08c-19.59 0-35.47-16-35.47-35.73 0-19.73 15.88-35.73 35.47-35.73h39.08c19.59 0 35.47 16 35.47 35.73 0 19.73-15.88 35.73-35.47 35.73Z" style="fill:#1e1ad3"/><path d="M556.47 397.75h-39.08c-19.59 0-35.47-16-35.47-35.73 0-19.73 15.88-35.73 35.47-35.73h39.08c19.59 0 35.47 16 35.47 35.73 0 19.73-15.88 35.73-35.47 35.73Z" style="fill:#0093d0"/><path d="M436.15 397.75h-39.08c-19.59 0-35.47-16-35.47-35.73 0-19.73 15.88-35.73 35.47-35.73h39.08c19.59 0 35.47 16 35.47 35.73 0 19.73-15.88 35.73-35.47 35.73Z" style="fill:#4fad32"/><path d="M315.82 397.75h-39.08c-19.59 0-35.47-16-35.47-35.73 0-19.73 15.88-35.73 35.47-35.73h39.08c19.59 0 35.47 16 35.47 35.73 0 19.73-15.88 35.73-35.47 35.73Z" style="fill:#ece200"/><path d="M195.5 397.75h-39.08c-19.59 0-35.47-16-35.47-35.73 0-19.73 15.88-35.73 35.47-35.73h39.08c19.59 0 35.47 16 35.47 35.73 0 19.73-15.88 35.73-35.47 35.73Z" style="fill:#ed7601"/><path d="M75.17 397.75H36.09c-19.59 0-35.47-16-35.47-35.73 0-19.73 15.88-35.73 35.47-35.73h39.08c19.59 0 35.47 16 35.47 35.73 0 19.73-15.88 35.73-35.47 35.73Z" style="fill:#e7388b"/></svg>
