<svg id="Layer_1" xmlns="http://www.w3.org/2000/svg" viewBox="0 0 360 201.76"><defs><linearGradient id="PP_RGB_Gold_Gradient" data-name="PP RGB Gold Gradient" x1="27.58" y1="50.71" x2="332.42" y2="50.71" gradientUnits="userSpaceOnUse"><stop offset="0" stop-color="#817148"/><stop offset=".24" stop-color="#d7bb77"/><stop offset=".42" stop-color="#817148"/><stop offset=".63" stop-color="#d7bb77"/><stop offset=".81" stop-color="#817148"/></linearGradient><style>.cls-2{fill:#fff}.cls-3{fill:#cc2229}</style></defs><g id="_x3C_2023_Logo_x3E_"><path transform="rotate(90 180 100.88)" d="M79.12-79.12h201.76v360H79.12z"/><path d="M318.07 136.28v1.7h1.55c4.21 0 4.21 2.03 4.21 4.26v21.69c-.53-.61-1.43-1.65-2.51-2.9-4.91-5.67-15.14-17.46-21.48-24.64l-.09-.1h-10.54v1.7h1.14c1.26 0 2.34.39 3.05 1.1.46.46.73 1.03.73 1.52-.01 7.37-.01 14.48-.01 21.68v5.86c0 2.61-1.2 3.88-3.65 3.88h-1.36v1.71h14.2v-1.71h-1.58c-2.6 0-4.33-.68-4.34-3.99v-25.31c.89 1.01 2.83 3.24 5.13 5.91 6.52 7.54 17.44 20.16 22.03 25l.09.1h2.47v-32.46c0-2.99 1.13-3.28 3.91-3.28h1.42v-1.7h-14.35Zm-77.4 29.16c-2.98 4-5.63 5.86-8.88 5.86h-10.17c-1.57 0-2.05-.53-2.05-2.27v-27.17c0-2.17 0-3.89 2.84-3.9h4.11v-1.7h-18.56v1.7h2.12c2.31 0 3.3 1.19 3.3 3.99v26.59c0 2.46-.89 3.47-3.08 3.47h-2.56v1.71h30.39l.09-.16c.46-.89.99-1.89 1.52-2.92.78-1.49 1.57-3.02 2.25-4.31l.17-.3-1.35-.79-.16.21Zm-126.96 6.96c-5.9-.49-9.71-4.05-12.49-6.54l-.44-.4c-2.38-2.12-5.75-5.21-6.88-6.25 5.43-1.78 8.78-6.01 8.78-11.16 0-7.88-7.03-12.4-19.29-12.4-4.53 0-11.5.31-16.38.62l-.29.02v1.7l.32-.02c.67-.04 1.13-.06 1.75-.06 2.19 0 4.53.4 4.53 5.23v23.51c0 4.16-1.16 5.37-5.17 5.37h-1.44v1.7h19.83v-1.7h-1.85c-3.42 0-5.16-.75-5.16-4.82v-5.76c1.14.11 2.27.12 3.32.12 1.83 0 3.92-.17 4.47-.22.48.46 2.65 2.54 7.09 6.38l.51.44c4.7 4.09 6.85 5.95 16.17 5.95.82 0 1.65-.02 2.61-.08l.29-.02v-1.61l-.29-.02ZM83 159.71c-.69 0-2.14-.03-3.45-.12v-21.93c.91-.09 2.31-.15 3.47-.15 8.79 0 12.71 3.48 12.71 10.95S91.57 159.7 83 159.7Zm-38.75-24.05c-4.53 0-11.5.31-16.39.62l-.29.02v1.7l.32-.02c.67-.04 1.13-.06 1.75-.06 2.19 0 4.53.4 4.53 5.23v23.51c0 4.16-1.16 5.37-5.17 5.37h-1.44v1.7h19.83v-1.7h-1.85c-3.42 0-5.16-.75-5.16-4.82v-5.76c1.14.11 2.27.12 3.32.12 9.14 0 19.82-3.54 19.82-13.5 0-7.88-7.03-12.4-19.29-12.4Zm-.4 24.05c-.69 0-2.14-.03-3.45-.12v-21.93c.91-.09 2.31-.15 3.47-.15 8.79 0 12.71 3.48 12.71 10.95s-4.16 11.24-12.73 11.24Zm140.46-24.05c-4.54 0-11.5.31-16.39.62l-.29.02v1.7l.32-.02c.67-.04 1.13-.06 1.75-.06 2.19 0 4.53.56 4.53 5.38v23.36c0 4.16-1.16 5.37-5.17 5.37h-1.44v1.7h19.83v-1.7h-1.85c-3.42 0-5.16-.75-5.16-4.82v-5.76c1.14.11 2.27.12 3.32.12 9.14 0 19.82-3.54 19.82-13.5 0-7.88-7.03-12.4-19.29-12.4Zm-.4 24.05c-.69 0-2.14-.03-3.45-.12v-21.93c.91-.09 2.31-.15 3.47-.15 8.79 0 12.71 3.48 12.71 10.95s-4.16 11.24-12.73 11.24Zm-50.18-24.62c-12.65 0-21.83 8.55-21.83 20.32 0 10.7 9.26 18.76 21.54 18.76s21.25-8.84 21.25-20.56c0-10.39-9.21-18.53-20.96-18.53Zm.92 37.17c-9.16 0-16.06-8.12-16.06-18.68 0-6.6 3.63-16.57 13.63-16.57 9.29 0 15.77 7.72 15.77 18.55 0 7.97-4.17 16.7-13.34 16.7Zm146.29-3.49c-1.77-4.01-3.43-8.09-5.03-12.04-1.56-3.83-3.17-7.79-4.88-11.69-1.28-2.93-2.47-5.63-3.77-8.58l-.08-.18h-6.59l.24.45c.3.57.28.69.14 1.05-.42 1.05-.84 2.01-1.26 2.99-.22.5-.43 1-.66 1.52-1.49 3.51-2.97 7.02-4.44 10.54l-1.28 3.04c-.17-.01-.34-.02-.51-.02-2.9 0-7 .99-10.06 5.68l-.17.27 1.34.8.17-.15c2.13-1.97 4.3-2.76 7.08-2.76.17 0 .35 0 .54.02-.86 2.03-1.72 4.06-2.59 6.08-1.86 4.33-2.75 6.09-6.03 6.09h-.74v1.86h15.18v-1.86h-2.31c-2.08 0-3.3-.32-3.73-.97-.29-.43-.25-1.06.11-1.93.29-.71 1.73-4.2 3.53-8.52.86.29 1.72.63 2.62.98 2.45.97 4.97 1.92 7.62 1.92 3.3 0 5.03-1.3 5.82-2.05l.19.48c1.62 3.91 2.89 7.01 3.19 7.71.26.71.27 1.37.03 1.71-.5.71-2.19.8-3.62.8h-2.83v1.7h18.87v-1.7h-1.22c-3.25 0-4.13-1.56-4.88-3.25Zm-12.72-8.79c-2.29 0-5.13-1.09-7.85-2.11-1.21-.45-2.45-.92-3.63-1.29 2.92-7.02 5.2-12.47 6.25-14.96 1.34 3.11 4.37 10.42 7.49 17.96-.59.27-1.33.4-2.26.4Z" style="fill:#d7bb77"/><path style="fill:url(#PP_RGB_Gold_Gradient)" d="M27.58 73.83 180 40.11l152.42 33.72L180 27.58 27.58 73.83z"/><path class="cls-2" d="M90.68 86.75h178.64v37.67H90.68z"/><path class="cls-3" d="M127.11 119.56v-31.6H91.89v35.24H268.1v-3.65H127.11Zm-3.62 0H95.54V91.61h27.95v27.95Z"/><path class="cls-3" d="M96.76 92.82h8.51v8.51h-8.51zm0 17.02h8.51v8.51h-8.51zm8.5-8.51h8.51v8.51h-8.51zm8.51-8.51h8.51v8.51h-8.51zm0 17.02h8.51v8.51h-8.51z"/><path d="M127.11 87.96h141v31.6h-141z"/><path class="cls-2" d="M216.9 95.04c0-.37.2-.56.56-.56h2.76c.28 0 .51.11.68.37l6.82 10.31c.65.99 1.35 2.03 2.09 3.24.11.2.31.17.31-.06-.03-1.16-.08-2.87-.08-4.03v-9.27c0-.37.2-.56.56-.56h2.25c.37 0 .56.2.56.56v18.6c0 .37-.2.56-.56.56h-2.68c-.28 0-.51-.11-.68-.37l-6.9-10.31c-.68-.99-1.35-2.03-2.09-3.24-.11-.2-.31-.17-.31.06.03 1.16.08 2.87.08 4.03v9.27c0 .37-.2.56-.56.56h-2.25c-.37 0-.56-.2-.56-.56v-18.6Z"/><rect class="cls-2" x="204.69" y="94.48" width="3.41" height="19.72" rx=".56" ry=".56"/><path class="cls-2" d="M197.45 111.36c-.7 0-1.32 0-1.69-.11-.39-.11-.62-.34-.85-.68l-2.28-3.38c-.11-.17-.06-.28.14-.37.68-.28 1.3-.71 1.8-1.21 1.16-1.16 1.86-2.87 1.86-4.68s-.68-3.58-1.86-4.73c-1.13-1.13-2.45-1.72-4.68-1.72h-7.75c-.37 0-.56.2-.56.56v18.6c0 .37.2.56.56.56h2.31c.37 0 .56-.2.56-.56v-6.03c0-.17.11-.28.28-.28h2.87c.37 0 .65.14.85.45l3.21 4.79c1.16 1.72 2.28 2.06 4.09 2.06.28 0 1.04 0 1.3-.08.28-.08.39-.28.39-.54v-2.09c0-.37-.2-.56-.56-.56Zm-5.44-8.17c-.59.54-1.24.82-2.31.82h-4.4c-.17 0-.28-.11-.28-.28v-5.64c0-.17.11-.28.28-.28h4.4c1.07 0 1.72.28 2.28.82.59.54.9 1.41.9 2.31 0 .85-.31 1.72-.87 2.25Zm-32.65 9.1c-1.44-1.41-2.14-3.21-2.14-6.06V95.04c0-.37.2-.56.56-.56l2.37.03c.37 0 .56.2.56.56v11.61c0 1.61.42 2.56 1.24 3.44.79.87 2.09 1.27 3.35 1.27s2.65-.39 3.47-1.27c.79-.87 1.18-1.83 1.18-3.44V95.04c0-.37.2-.56.56-.56h2.37c.37 0 .56.2.56.56v11.33c0 2.82-.7 4.51-2.11 5.95-1.47 1.49-3.72 2.31-6.03 2.31s-4.51-.87-5.95-2.34m-10.76-15.98c-1.24-1.21-2.65-1.83-5.04-1.83h-8.12c-.37 0-.56.2-.56.56v18.6c0 .37.2.56.56.56h2.31c.37 0 .56-.2.56-.56v-5.13c0-.17.11-.28.28-.28h4.85c2.42 0 3.92-.62 5.13-1.83 1.24-1.24 2-3.07 2-5.02s-.73-3.83-1.97-5.07Zm-2.53 7.67c-.65.62-1.41.93-2.65.93h-4.82c-.17 0-.28-.11-.28-.28v-6.54c0-.17.11-.28.28-.28h4.82c1.24 0 2 .34 2.65.93.68.62 1.01 1.63 1.01 2.65s-.34 1.97-1.01 2.59Zm113.07 9.58-7.72-18.65c-.11-.31-.34-.42-.65-.42h-2.93a.67.67 0 0 0-.65.45l-7.64 18.63c-.17.39.03.65.45.65h2.48c.31 0 .54-.17.65-.45l1.49-3.69c.08-.23.23-.31.45-.31h8.45c.23 0 .37.08.45.31l1.52 3.69c.11.28.34.45.65.45h2.56c.42 0 .59-.25.42-.65Zm-7.01-7.1h-5.66c-.25 0-.39-.14-.28-.39l1.27-3.3c.56-1.44 1.07-2.76 1.63-4.25.11-.31.28-.31.39 0 .56 1.49 1.07 2.82 1.63 4.25l1.27 3.3c.11.25 0 .39-.25.39Zm7.38-13.45c-1.79 0-3.23 1.44-3.23 3.23s1.44 3.23 3.23 3.23 3.23-1.44 3.23-3.23-1.44-3.23-3.23-3.23Zm0 5.91c-1.47 0-2.65-1.25-2.65-2.68s1.18-2.65 2.65-2.65 2.68 1.18 2.68 2.65-1.21 2.68-2.68 2.68Z"/><path class="cls-2" d="m260.52 97.23-.38-.57c.48-.16.73-.61.73-1.05 0-.61-.42-1.12-1.15-1.12h-1.44v3.42h.61v-1.18h.58l.61.89c.26.38.45.38.93.35v-.54c-.26 0-.32.03-.48-.19Zm-.83-1.09h-.8v-1.09h.8c.26 0 .54.13.54.54 0 .38-.26.54-.54.54Z"/><text transform="translate(333.82 145.05)" style="fill:#fff;font-family:HelveticaNeue-Medium,'Helvetica Neue';font-size:12px;font-weight:500;opacity:.92"><tspan x="0" y="0">®</tspan></text></g></svg>
