<svg xmlns="http://www.w3.org/2000/svg" viewBox="0 0 351.7 50.05"><defs><style>.cls-1,.cls-2{fill:#dc0d15;stroke-width:0}.cls-2{fill:#000}</style></defs><path class="cls-1" d="m.19 50.05 24.93-24.93L0 0h4.78L29.9 25.12 4.97 50.05H.19z"/><path class="cls-1" d="M7.87 50.05 32.8 25.12 7.68 0h4.78l25.12 25.12-24.93 24.93H7.87z"/><path class="cls-1" d="m15.55 50.05 24.93-24.93L15.36 0h4.78l25.12 25.12-24.93 24.93h-4.78z"/><path class="cls-1" d="m23.23 50.05 24.93-24.93L23.04 0h4.78l25.12 25.12-24.93 24.93h-4.78z"/><path class="cls-1" d="M80.95 0 58.23 22.72l-1.45-1.44L78.05 0h-4.78L54.39 18.88l-1.45-1.44L70.37 0h-4.78L50.55 15.04 49.1 13.6 62.7 0h-4.79l-11.2 11.2-1.45-1.44L55.01 0h-4.78l-7.36 7.36L35.5 0h-4.78l25.12 25.12-24.93 24.93h4.78l24.93-24.93L85.73 0h-4.78z"/><path class="cls-2" d="M114.88 6.25h-7.55l-7.56 16.06-7.56-16.06h-7.55l11.75 23.82v14.21h6.71v-14.2l11.75-23.83Z"/><path class="cls-2" d="M129.08 5.91c10.68 0 19.34 8.66 19.34 19.34s-8.66 19.34-19.34 19.34-19.34-8.66-19.34-19.34 8.66-19.34 19.34-19.34Zm-12.52 19.35c0 6.92 5.61 12.52 12.52 12.52s12.52-5.61 12.52-12.52-5.61-12.52-12.52-12.52-12.52 5.61-12.52 12.52Zm73.26-19.35c10.68 0 19.34 8.66 19.34 19.34s-8.66 19.34-19.34 19.34-19.34-8.66-19.34-19.34 8.66-19.34 19.34-19.34ZM177.3 25.26c0 6.92 5.61 12.52 12.52 12.52s12.52-5.61 12.52-12.52-5.61-12.52-12.52-12.52-12.52 5.61-12.52 12.52Z"/><path class="cls-2" d="M176.89 5.93h-8.53L156.9 22.11V5.93h-7.06v38.02h7.06V28.29l10.9 15.66h8.53l-13.91-18.64 14.47-19.38zm53.99.32v16.02h-12.96V6.25h-7.34v38.02h7.34V29.12h12.96v15.15h7.35V6.25h-7.35zm36.11 38.02h7.34L260.28 6.25h-6.78l-14.05 38.02h7.34l3.37-9.13h13.45l3.37 9.13Zm-14.53-15.36 4.43-11.98 4.43 11.98h-8.85Zm91.9 15.36h7.34L337.65 6.25h-6.78l-14.05 38.02h7.34l3.38-9.13h13.45l3.37 9.13Zm-14.52-15.36 4.43-11.98 4.43 11.98h-8.86ZM312.91 6.25h-6.97L295.3 34.48 284.65 6.25h-8.92v38.02h6.92V19.41l9.36 24.86h6.57l9.37-24.86v24.86h6.92V6.25h-1.96z"/></svg>
